<?xml version="1.0" standalone="no"?>
 <!DOCTYPE svg PUBLIC "-//W3C//DTD SVG 1.1//EN" 
 "http://www.w3.org/Graphics/SVG/1.1/DTD/svg11.dtd"> 
<svg xmlns="http://www.w3.org/2000/svg" version="1.1" 
    width="27.94cm" height="21.59cm" viewBox="0 0 110000 85000 ">
<title>SVG Picture created as ThreeLedGlobe-F.Paste.svg date 2018/05/29 15:27:24 </title>
  <desc>Picture generated by PCBNEW </desc>
<g style="fill:#000000; fill-opacity:1;stroke:#000000; stroke-opacity:1;
stroke-linecap:round; stroke-linejoin:round; "
 transform="translate(0 0) scale(1 1)">
</g>
<g style="fill:#000000; fill-opacity:0.0; 
stroke:#000000; stroke-width:-0.000393701; stroke-opacity:1; 
stroke-linecap:round; stroke-linejoin:round;">
</g>
<g style="fill:#000000; fill-opacity:0.0; 
stroke:#000000; stroke-width:0; stroke-opacity:1; 
stroke-linecap:round; stroke-linejoin:round;">
</g>
<g style="fill:#000000; fill-opacity:1.0; 
stroke:#000000; stroke-width:0; stroke-opacity:1; 
stroke-linecap:round; stroke-linejoin:round;">
<polyline style="fill-rule:evenodd;"
points="62420,34093
61713,34093
61713,33544
62420,33544
62420,34093
" /> 
<polyline style="fill-rule:evenodd;"
points="62420,35392
61713,35392
61713,34843
62420,34843
62420,35392
" /> 
<polyline style="fill-rule:evenodd;"
points="64309,35392
63603,35392
63603,34843
64309,34843
64309,35392
" /> 
<polyline style="fill-rule:evenodd;"
points="64309,34093
63603,34093
63603,33544
64309,33544
64309,34093
" /> 
<polyline style="fill-rule:evenodd;"
points="64188,37104
63481,37104
63481,36555
64188,36555
64188,37104
" /> 
<polyline style="fill-rule:evenodd;"
points="64188,38404
63481,38404
63481,37855
64188,37855
64188,38404
" /> 
<polyline style="fill-rule:evenodd;"
points="66078,38404
65371,38404
65371,37855
66078,37855
66078,38404
" /> 
<polyline style="fill-rule:evenodd;"
points="66078,37104
65371,37104
65371,36555
66078,36555
66078,37104
" /> 
<polyline style="fill-rule:evenodd;"
points="60608,37104
59901,37104
59901,36555
60608,36555
60608,37104
" /> 
<polyline style="fill-rule:evenodd;"
points="60608,38404
59901,38404
59901,37855
60608,37855
60608,38404
" /> 
<polyline style="fill-rule:evenodd;"
points="62498,38404
61791,38404
61791,37855
62498,37855
62498,38404
" /> 
<polyline style="fill-rule:evenodd;"
points="62498,37104
61791,37104
61791,36555
62498,36555
62498,37104
" /> 
<polyline style="fill-rule:evenodd;"
points="60808,34450
61317,34450
61317,34723
60808,34723
60808,34450
" /> 
<polyline style="fill-rule:evenodd;"
points="60808,35198
61317,35198
61317,35471
60808,35471
60808,35198
" /> 
<polyline style="fill-rule:evenodd;"
points="65374,35959
64885,35959
64885,35568
65374,35568
65374,35959
" /> 
<polyline style="fill-rule:evenodd;"
points="65374,35172
64885,35172
64885,34780
65374,34780
65374,35172
" /> 
</g> 
</svg>
