G04 #@! TF.FileFunction,Legend,Top*
%FSLAX46Y46*%
G04 Gerber Fmt 4.6, Leading zero omitted, Abs format (unit mm)*
G04 Created by KiCad (PCBNEW 4.0.7) date 01/08/18 14:04:22*
%MOMM*%
%LPD*%
G01*
G04 APERTURE LIST*
%ADD10C,0.100000*%
%ADD11C,0.075000*%
%ADD12C,0.050000*%
%ADD13C,0.200000*%
%ADD14C,0.150000*%
G04 APERTURE END LIST*
D10*
D11*
X150585147Y-98895295D02*
X150761482Y-98652590D01*
X150819269Y-98694575D01*
X150845544Y-98731323D01*
X150851865Y-98771232D01*
X150846628Y-98802743D01*
X150824598Y-98857370D01*
X150799407Y-98892042D01*
X150754262Y-98929875D01*
X150725911Y-98944593D01*
X150686002Y-98950914D01*
X150642933Y-98937280D01*
X150585147Y-98895295D01*
X151050416Y-98862513D02*
X151096646Y-98896101D01*
X151111364Y-98924453D01*
X151117685Y-98964361D01*
X151095655Y-99018988D01*
X151036876Y-99099889D01*
X150991731Y-99137722D01*
X150951822Y-99144043D01*
X150920310Y-99138806D01*
X150874081Y-99105218D01*
X150859363Y-99076868D01*
X150853043Y-99036959D01*
X150875073Y-98982332D01*
X150933851Y-98901431D01*
X150978997Y-98863598D01*
X151018905Y-98857277D01*
X151050416Y-98862513D01*
X151258450Y-99013659D02*
X151115703Y-99210134D01*
X151110465Y-99241646D01*
X151113626Y-99261601D01*
X151128344Y-99289951D01*
X151174573Y-99323539D01*
X151206085Y-99328776D01*
X151226039Y-99325615D01*
X151254391Y-99310897D01*
X151397138Y-99114421D01*
X151478040Y-99173200D02*
X151616729Y-99273963D01*
X151371049Y-99466287D02*
X151547385Y-99223582D01*
X152186200Y-99705367D02*
X152171483Y-99677015D01*
X152136811Y-99651825D01*
X152093741Y-99638192D01*
X152053833Y-99644512D01*
X152025482Y-99659231D01*
X151980336Y-99697063D01*
X151955145Y-99731735D01*
X151933115Y-99786362D01*
X151927878Y-99817873D01*
X151934199Y-99857782D01*
X151960475Y-99894530D01*
X151983589Y-99911323D01*
X152026658Y-99924957D01*
X152046613Y-99921797D01*
X152105391Y-99840895D01*
X152059162Y-99807307D01*
X152133836Y-100020484D02*
X152310172Y-99777779D01*
X152272524Y-100121247D01*
X152448860Y-99878542D01*
X152388099Y-100205217D02*
X152564434Y-99962512D01*
X152622221Y-100004496D01*
X152648496Y-100041244D01*
X152654817Y-100081153D01*
X152649580Y-100112665D01*
X152627550Y-100167291D01*
X152602359Y-100201963D01*
X152557214Y-100239796D01*
X152528863Y-100254514D01*
X152488954Y-100260835D01*
X152445885Y-100247201D01*
X152388099Y-100205217D01*
X153142302Y-100382357D02*
X153046868Y-100683841D01*
X153304106Y-100499914D01*
X153364154Y-100879047D02*
X153344200Y-100882207D01*
X153301131Y-100868573D01*
X153278017Y-100851780D01*
X153251741Y-100815032D01*
X153245420Y-100775123D01*
X153250657Y-100743612D01*
X153272687Y-100688985D01*
X153297878Y-100654313D01*
X153343023Y-100616481D01*
X153371374Y-100601762D01*
X153411283Y-100595442D01*
X153454352Y-100609075D01*
X153477467Y-100625868D01*
X153503742Y-100662617D01*
X153506902Y-100682571D01*
X153606859Y-101055382D02*
X153586905Y-101058543D01*
X153543836Y-101044909D01*
X153520722Y-101028115D01*
X153494446Y-100991368D01*
X153488125Y-100951458D01*
X153493362Y-100919948D01*
X153515392Y-100865321D01*
X153540583Y-100830649D01*
X153585728Y-100792816D01*
X153614079Y-100778097D01*
X153653988Y-100771777D01*
X153697057Y-100785410D01*
X153720172Y-100802204D01*
X153746447Y-100838952D01*
X153749607Y-100858907D01*
X154543905Y-101418340D02*
X154529188Y-101389989D01*
X154494516Y-101364798D01*
X154451447Y-101351165D01*
X154411538Y-101357485D01*
X154383187Y-101372204D01*
X154338041Y-101410036D01*
X154312851Y-101444708D01*
X154290820Y-101499335D01*
X154285584Y-101530846D01*
X154291905Y-101570755D01*
X154318180Y-101607503D01*
X154341295Y-101624297D01*
X154384363Y-101637931D01*
X154404318Y-101634770D01*
X154463096Y-101553868D01*
X154416867Y-101520280D01*
X154491541Y-101733457D02*
X154667877Y-101490752D01*
X154630229Y-101834220D01*
X154806565Y-101591515D01*
X154745804Y-101918190D02*
X154922140Y-101675485D01*
X154979926Y-101717469D01*
X155006201Y-101754217D01*
X155012523Y-101794126D01*
X155007285Y-101825638D01*
X154985255Y-101880264D01*
X154960064Y-101914937D01*
X154914919Y-101952769D01*
X154886568Y-101967487D01*
X154846659Y-101973808D01*
X154803590Y-101960174D01*
X154745804Y-101918190D01*
X155358345Y-102363227D02*
X155534680Y-102120522D01*
X155592467Y-102162506D01*
X155618742Y-102199254D01*
X155625063Y-102239163D01*
X155619826Y-102270675D01*
X155597796Y-102325301D01*
X155572605Y-102359973D01*
X155527460Y-102397806D01*
X155499109Y-102412524D01*
X155459200Y-102418845D01*
X155416131Y-102405211D01*
X155358345Y-102363227D01*
X155601050Y-102539562D02*
X155777385Y-102296857D01*
X155716624Y-102623532D02*
X155892959Y-102380826D01*
X155855312Y-102724294D01*
X156031647Y-102481589D01*
X156744688Y-102924294D02*
X156568353Y-102681589D01*
X156626139Y-102639605D01*
X156669208Y-102625972D01*
X156709117Y-102632292D01*
X156737468Y-102647011D01*
X156782614Y-102684843D01*
X156807804Y-102719515D01*
X156829834Y-102774142D01*
X156835071Y-102805653D01*
X156828750Y-102845563D01*
X156802475Y-102882310D01*
X156744688Y-102924294D01*
X156857287Y-102471666D02*
X156903516Y-102438079D01*
X156935029Y-102432842D01*
X156974937Y-102439163D01*
X157020082Y-102476995D01*
X157078861Y-102557897D01*
X157100891Y-102612524D01*
X157094571Y-102652433D01*
X157079852Y-102680784D01*
X157033622Y-102714372D01*
X157002111Y-102719608D01*
X156962203Y-102713287D01*
X156917057Y-102675454D01*
X156858279Y-102594553D01*
X156836249Y-102539926D01*
X156842569Y-102500018D01*
X156857287Y-102471666D01*
X157065321Y-102320521D02*
X157208068Y-102516996D01*
X157236419Y-102531715D01*
X157256374Y-102534876D01*
X157287885Y-102529639D01*
X157334115Y-102496051D01*
X157348833Y-102467700D01*
X157351993Y-102447746D01*
X157346756Y-102416234D01*
X157204009Y-102219758D01*
X157284910Y-102160980D02*
X157423599Y-102060216D01*
X157530591Y-102353303D02*
X157354255Y-102110598D01*
X158009864Y-101651928D02*
X157978353Y-101657164D01*
X157943681Y-101682355D01*
X157917406Y-101719103D01*
X157911084Y-101759012D01*
X157916322Y-101790524D01*
X157938352Y-101845150D01*
X157963543Y-101879822D01*
X158008688Y-101917655D01*
X158037038Y-101932373D01*
X158076948Y-101938694D01*
X158120016Y-101925060D01*
X158143131Y-101908266D01*
X158169406Y-101871519D01*
X158172567Y-101851564D01*
X158113788Y-101770662D01*
X158067559Y-101804250D01*
X158293377Y-101799106D02*
X158117042Y-101556401D01*
X158432066Y-101698343D01*
X158255730Y-101455638D01*
X158547640Y-101614373D02*
X158371305Y-101371668D01*
X158429091Y-101329684D01*
X158472160Y-101316051D01*
X158512069Y-101322371D01*
X158540420Y-101337090D01*
X158585565Y-101374922D01*
X158610756Y-101409594D01*
X158632786Y-101464221D01*
X158638023Y-101495732D01*
X158631702Y-101535641D01*
X158605427Y-101572389D01*
X158547640Y-101614373D01*
X158949172Y-100951823D02*
X159206410Y-101135749D01*
X159110976Y-100834265D01*
X159490108Y-100894314D02*
X159486948Y-100914269D01*
X159460672Y-100951016D01*
X159437558Y-100967810D01*
X159394489Y-100981444D01*
X159354580Y-100975123D01*
X159326230Y-100960405D01*
X159281084Y-100922572D01*
X159255893Y-100887900D01*
X159233863Y-100833274D01*
X159228626Y-100801762D01*
X159234947Y-100761853D01*
X159261222Y-100725105D01*
X159284337Y-100708311D01*
X159327406Y-100694678D01*
X159347361Y-100697839D01*
X159732814Y-100717979D02*
X159729653Y-100737933D01*
X159703377Y-100774681D01*
X159680263Y-100791474D01*
X159637195Y-100805108D01*
X159597285Y-100798787D01*
X159568935Y-100784069D01*
X159523789Y-100746237D01*
X159498599Y-100711565D01*
X159476568Y-100656938D01*
X159471331Y-100625426D01*
X159477653Y-100585518D01*
X159503927Y-100548769D01*
X159527042Y-100531976D01*
X159570111Y-100518343D01*
X159590066Y-100521503D01*
X160367570Y-99938955D02*
X160336058Y-99944191D01*
X160301386Y-99969382D01*
X160275111Y-100006130D01*
X160268789Y-100046039D01*
X160274027Y-100077550D01*
X160296057Y-100132177D01*
X160321248Y-100166849D01*
X160366393Y-100204682D01*
X160394744Y-100219400D01*
X160434653Y-100225721D01*
X160477722Y-100212087D01*
X160500836Y-100195293D01*
X160527112Y-100158546D01*
X160530272Y-100138591D01*
X160471494Y-100057689D01*
X160425264Y-100091277D01*
X160651083Y-100086133D02*
X160474747Y-99843428D01*
X160789771Y-99985370D01*
X160613435Y-99742665D01*
X160905345Y-99901400D02*
X160729010Y-99658695D01*
X160786796Y-99616711D01*
X160829865Y-99603078D01*
X160869774Y-99609398D01*
X160898125Y-99624116D01*
X160943271Y-99661949D01*
X160968461Y-99696621D01*
X160990492Y-99751248D01*
X160995728Y-99782759D01*
X160989407Y-99822668D01*
X160963132Y-99859416D01*
X160905345Y-99901400D01*
X161517886Y-99456363D02*
X161341551Y-99213658D01*
X161399337Y-99171674D01*
X161442406Y-99158041D01*
X161482315Y-99164361D01*
X161510666Y-99179080D01*
X161555811Y-99216912D01*
X161581002Y-99251584D01*
X161603032Y-99306211D01*
X161608269Y-99337722D01*
X161601948Y-99377631D01*
X161575673Y-99414379D01*
X161517886Y-99456363D01*
X161760591Y-99280028D02*
X161584256Y-99037322D01*
X161876165Y-99196058D02*
X161699829Y-98953353D01*
X162014853Y-99095295D01*
X161838518Y-98852590D01*
X152477440Y-91960337D02*
X152762757Y-92053042D01*
X152740685Y-92120974D01*
X152713854Y-92157319D01*
X152677853Y-92175664D01*
X152646265Y-92180420D01*
X152587504Y-92176349D01*
X152546744Y-92163105D01*
X152496813Y-92131860D01*
X152474054Y-92109446D01*
X152455710Y-92073443D01*
X152455368Y-92028269D01*
X152477440Y-91960337D01*
X152652394Y-92392704D02*
X152634736Y-92447050D01*
X152612320Y-92469809D01*
X152576319Y-92488153D01*
X152517558Y-92484082D01*
X152422452Y-92453180D01*
X152372520Y-92421935D01*
X152354176Y-92385933D01*
X152349419Y-92354345D01*
X152367077Y-92299999D01*
X152389492Y-92277241D01*
X152425495Y-92258897D01*
X152484255Y-92262969D01*
X152579361Y-92293870D01*
X152629293Y-92325115D01*
X152647636Y-92361117D01*
X152652394Y-92392704D01*
X152572932Y-92637263D02*
X152341962Y-92562216D01*
X152310374Y-92566972D01*
X152292372Y-92576145D01*
X152269958Y-92598903D01*
X152252299Y-92653249D01*
X152257056Y-92684837D01*
X152266229Y-92702837D01*
X152288987Y-92725253D01*
X152519958Y-92800300D01*
X152489057Y-92895406D02*
X152436082Y-93058445D01*
X152177252Y-92884221D02*
X152462569Y-92976926D01*
X152201769Y-93733355D02*
X152224185Y-93710597D01*
X152237429Y-93669837D01*
X152237085Y-93624663D01*
X152218742Y-93588661D01*
X152195983Y-93566245D01*
X152146051Y-93535001D01*
X152105292Y-93521757D01*
X152046531Y-93517686D01*
X152014944Y-93522443D01*
X151978941Y-93540787D01*
X151952112Y-93577132D01*
X151943283Y-93604305D01*
X151943625Y-93649478D01*
X151952797Y-93667480D01*
X152047903Y-93698382D01*
X152065561Y-93644035D01*
X151885894Y-93780930D02*
X152171211Y-93873635D01*
X151832919Y-93943968D01*
X152118236Y-94036673D01*
X151788774Y-94079834D02*
X152074091Y-94172539D01*
X152052018Y-94240471D01*
X152025188Y-94276816D01*
X151989186Y-94295161D01*
X151957598Y-94299917D01*
X151898837Y-94295846D01*
X151858078Y-94282602D01*
X151808146Y-94251357D01*
X151785388Y-94228942D01*
X151767044Y-94192940D01*
X151766701Y-94147766D01*
X151788774Y-94079834D01*
X151853365Y-94851863D02*
X151537146Y-94854264D01*
X151791562Y-95042075D01*
X151449541Y-95216343D02*
X151440369Y-95198341D01*
X151440027Y-95153168D01*
X151448856Y-95125995D01*
X151475685Y-95089650D01*
X151511688Y-95071306D01*
X151543275Y-95066549D01*
X151602036Y-95070620D01*
X151642795Y-95083864D01*
X151692727Y-95115109D01*
X151715486Y-95137524D01*
X151733829Y-95173526D01*
X151734172Y-95218700D01*
X151725344Y-95245873D01*
X151698513Y-95282218D01*
X151680512Y-95291390D01*
X151356836Y-95501660D02*
X151347664Y-95483658D01*
X151347322Y-95438485D01*
X151356150Y-95411312D01*
X151382980Y-95374967D01*
X151418983Y-95356623D01*
X151450570Y-95351866D01*
X151509330Y-95355937D01*
X151550090Y-95369181D01*
X151600021Y-95400426D01*
X151622781Y-95422841D01*
X151641124Y-95458843D01*
X151641467Y-95504017D01*
X151632638Y-95531190D01*
X151605808Y-95567535D01*
X151587807Y-95576707D01*
X151301206Y-96505003D02*
X151323622Y-96482245D01*
X151336865Y-96441486D01*
X151336522Y-96396312D01*
X151318179Y-96360309D01*
X151295419Y-96337894D01*
X151245488Y-96306649D01*
X151204728Y-96293406D01*
X151145968Y-96289334D01*
X151114381Y-96294091D01*
X151078378Y-96312436D01*
X151051548Y-96348781D01*
X151042719Y-96375953D01*
X151043062Y-96421127D01*
X151052234Y-96439129D01*
X151147340Y-96470030D01*
X151164998Y-96415684D01*
X150985330Y-96552579D02*
X151270647Y-96645284D01*
X150932356Y-96715617D01*
X151217673Y-96808322D01*
X150888211Y-96851483D02*
X151173528Y-96944188D01*
X151151455Y-97012120D01*
X151124625Y-97048465D01*
X151088623Y-97066809D01*
X151057035Y-97071566D01*
X150998274Y-97067495D01*
X150957515Y-97054251D01*
X150907583Y-97023006D01*
X150884825Y-97000591D01*
X150866480Y-96964588D01*
X150866138Y-96919415D01*
X150888211Y-96851483D01*
X150654241Y-97571567D02*
X150939558Y-97664273D01*
X150917485Y-97732205D01*
X150890655Y-97768549D01*
X150854653Y-97786894D01*
X150823065Y-97791651D01*
X150764304Y-97787579D01*
X150723545Y-97774336D01*
X150673613Y-97743091D01*
X150650855Y-97720676D01*
X150632511Y-97684673D01*
X150632168Y-97639500D01*
X150654241Y-97571567D01*
X150561536Y-97856884D02*
X150846853Y-97949590D01*
X150517391Y-97992750D02*
X150802708Y-98085455D01*
X150464416Y-98155787D01*
X150749733Y-98248492D01*
X162335584Y-98355787D02*
X162050267Y-98448492D01*
X162028194Y-98380560D01*
X162028537Y-98335386D01*
X162046881Y-98299384D01*
X162069640Y-98276969D01*
X162119572Y-98245724D01*
X162160331Y-98232480D01*
X162219092Y-98228409D01*
X162250679Y-98233166D01*
X162286682Y-98251510D01*
X162313511Y-98287855D01*
X162335584Y-98355787D01*
X161939904Y-98108830D02*
X161922246Y-98054484D01*
X161927003Y-98022896D01*
X161945347Y-97986894D01*
X161995278Y-97955649D01*
X162090384Y-97924747D01*
X162149145Y-97920676D01*
X162185147Y-97939020D01*
X162207563Y-97961779D01*
X162225221Y-98016125D01*
X162220464Y-98047712D01*
X162202119Y-98083714D01*
X162152187Y-98114959D01*
X162057082Y-98145860D01*
X161998321Y-98149932D01*
X161962319Y-98131588D01*
X161939904Y-98108830D01*
X161860442Y-97864272D02*
X162091413Y-97789225D01*
X162114172Y-97766810D01*
X162123344Y-97748808D01*
X162128101Y-97717221D01*
X162110443Y-97662875D01*
X162088028Y-97640116D01*
X162070027Y-97630945D01*
X162038438Y-97626187D01*
X161807468Y-97701234D01*
X161776566Y-97606128D02*
X161723591Y-97443090D01*
X162035396Y-97431903D02*
X161750079Y-97524608D01*
X161516452Y-96759351D02*
X161511695Y-96790938D01*
X161524938Y-96831697D01*
X161551768Y-96868042D01*
X161587770Y-96886387D01*
X161619358Y-96891143D01*
X161678119Y-96887072D01*
X161718878Y-96873828D01*
X161768810Y-96842583D01*
X161791568Y-96820169D01*
X161809913Y-96784166D01*
X161810255Y-96738992D01*
X161801426Y-96711819D01*
X161774597Y-96675474D01*
X161756595Y-96666302D01*
X161661490Y-96697204D01*
X161679148Y-96751550D01*
X161744037Y-96535194D02*
X161458720Y-96627899D01*
X161691063Y-96372156D01*
X161405746Y-96464861D01*
X161646917Y-96236290D02*
X161361600Y-96328995D01*
X161339528Y-96261063D01*
X161339871Y-96215889D01*
X161358215Y-96179887D01*
X161380974Y-96157472D01*
X161430905Y-96126227D01*
X161471665Y-96112983D01*
X161530426Y-96108912D01*
X161562013Y-96113669D01*
X161598015Y-96132013D01*
X161624845Y-96168358D01*
X161646917Y-96236290D01*
X161140874Y-95649671D02*
X161395290Y-95461860D01*
X161079071Y-95459460D01*
X161253339Y-95117439D02*
X161271341Y-95126611D01*
X161298170Y-95162956D01*
X161306999Y-95190129D01*
X161306657Y-95235303D01*
X161288312Y-95271306D01*
X161265554Y-95293720D01*
X161215622Y-95324965D01*
X161174863Y-95338209D01*
X161116102Y-95342280D01*
X161084514Y-95337524D01*
X161048512Y-95319179D01*
X161021682Y-95282834D01*
X161012853Y-95255662D01*
X161013196Y-95210487D01*
X161022368Y-95192486D01*
X161160634Y-94832122D02*
X161178636Y-94841294D01*
X161205465Y-94877639D01*
X161214294Y-94904812D01*
X161213952Y-94949986D01*
X161195607Y-94985989D01*
X161172849Y-95008403D01*
X161122917Y-95039648D01*
X161082158Y-95052892D01*
X161023397Y-95056963D01*
X160991809Y-95052207D01*
X160955807Y-95033862D01*
X160928977Y-94997517D01*
X160920148Y-94970345D01*
X160920491Y-94925171D01*
X160929663Y-94907169D01*
X160615889Y-93987702D02*
X160611131Y-94019289D01*
X160624375Y-94060048D01*
X160651205Y-94096393D01*
X160687207Y-94114738D01*
X160718795Y-94119495D01*
X160777556Y-94115423D01*
X160818315Y-94102180D01*
X160868247Y-94070935D01*
X160891005Y-94048520D01*
X160909349Y-94012517D01*
X160909692Y-93967343D01*
X160900863Y-93940171D01*
X160874033Y-93903826D01*
X160856032Y-93894653D01*
X160760926Y-93925555D01*
X160778585Y-93979901D01*
X160843474Y-93763545D02*
X160558157Y-93856250D01*
X160790500Y-93600508D01*
X160505183Y-93693213D01*
X160746354Y-93464641D02*
X160461037Y-93557347D01*
X160438965Y-93489415D01*
X160439308Y-93444240D01*
X160457651Y-93408238D01*
X160480411Y-93385823D01*
X160530342Y-93354578D01*
X160571102Y-93341334D01*
X160629862Y-93337263D01*
X160661449Y-93342020D01*
X160697452Y-93360364D01*
X160724282Y-93396709D01*
X160746354Y-93464641D01*
X160512384Y-92744557D02*
X160227067Y-92837262D01*
X160204995Y-92769330D01*
X160205338Y-92724156D01*
X160223681Y-92688153D01*
X160246441Y-92665738D01*
X160296372Y-92634493D01*
X160337132Y-92621250D01*
X160395893Y-92617178D01*
X160427480Y-92621935D01*
X160463482Y-92640279D01*
X160490312Y-92676625D01*
X160512384Y-92744557D01*
X160419679Y-92459240D02*
X160134362Y-92551945D01*
X160375534Y-92323375D02*
X160090217Y-92416080D01*
X160322560Y-92160337D01*
X160037243Y-92253042D01*
X159757141Y-91664286D02*
X159757141Y-91964286D01*
X159685713Y-91964286D01*
X159642856Y-91950000D01*
X159614284Y-91921429D01*
X159599999Y-91892857D01*
X159585713Y-91835714D01*
X159585713Y-91792857D01*
X159599999Y-91735714D01*
X159614284Y-91707143D01*
X159642856Y-91678571D01*
X159685713Y-91664286D01*
X159757141Y-91664286D01*
X159399999Y-91964286D02*
X159342856Y-91964286D01*
X159314284Y-91950000D01*
X159285713Y-91921429D01*
X159271427Y-91864286D01*
X159271427Y-91764286D01*
X159285713Y-91707143D01*
X159314284Y-91678571D01*
X159342856Y-91664286D01*
X159399999Y-91664286D01*
X159428570Y-91678571D01*
X159457141Y-91707143D01*
X159471427Y-91764286D01*
X159471427Y-91864286D01*
X159457141Y-91921429D01*
X159428570Y-91950000D01*
X159399999Y-91964286D01*
X159142855Y-91964286D02*
X159142855Y-91721429D01*
X159128570Y-91692857D01*
X159114284Y-91678571D01*
X159085713Y-91664286D01*
X159028570Y-91664286D01*
X158999998Y-91678571D01*
X158985713Y-91692857D01*
X158971427Y-91721429D01*
X158971427Y-91964286D01*
X158871427Y-91964286D02*
X158699998Y-91964286D01*
X158785712Y-91664286D02*
X158785712Y-91964286D01*
X157985714Y-91950000D02*
X158014285Y-91964286D01*
X158057142Y-91964286D01*
X158099999Y-91950000D01*
X158128571Y-91921429D01*
X158142856Y-91892857D01*
X158157142Y-91835714D01*
X158157142Y-91792857D01*
X158142856Y-91735714D01*
X158128571Y-91707143D01*
X158099999Y-91678571D01*
X158057142Y-91664286D01*
X158028571Y-91664286D01*
X157985714Y-91678571D01*
X157971428Y-91692857D01*
X157971428Y-91792857D01*
X158028571Y-91792857D01*
X157842856Y-91664286D02*
X157842856Y-91964286D01*
X157671428Y-91664286D01*
X157671428Y-91964286D01*
X157528570Y-91664286D02*
X157528570Y-91964286D01*
X157457142Y-91964286D01*
X157414285Y-91950000D01*
X157385713Y-91921429D01*
X157371428Y-91892857D01*
X157357142Y-91835714D01*
X157357142Y-91792857D01*
X157371428Y-91735714D01*
X157385713Y-91707143D01*
X157414285Y-91678571D01*
X157457142Y-91664286D01*
X157528570Y-91664286D01*
X156814286Y-91964286D02*
X156714286Y-91664286D01*
X156614286Y-91964286D01*
X156342857Y-91692857D02*
X156357143Y-91678571D01*
X156400000Y-91664286D01*
X156428571Y-91664286D01*
X156471428Y-91678571D01*
X156500000Y-91707143D01*
X156514285Y-91735714D01*
X156528571Y-91792857D01*
X156528571Y-91835714D01*
X156514285Y-91892857D01*
X156500000Y-91921429D01*
X156471428Y-91950000D01*
X156428571Y-91964286D01*
X156400000Y-91964286D01*
X156357143Y-91950000D01*
X156342857Y-91935714D01*
X156042857Y-91692857D02*
X156057143Y-91678571D01*
X156100000Y-91664286D01*
X156128571Y-91664286D01*
X156171428Y-91678571D01*
X156200000Y-91707143D01*
X156214285Y-91735714D01*
X156228571Y-91792857D01*
X156228571Y-91835714D01*
X156214285Y-91892857D01*
X156200000Y-91921429D01*
X156171428Y-91950000D01*
X156128571Y-91964286D01*
X156100000Y-91964286D01*
X156057143Y-91950000D01*
X156042857Y-91935714D01*
X155071430Y-91950000D02*
X155100001Y-91964286D01*
X155142858Y-91964286D01*
X155185715Y-91950000D01*
X155214287Y-91921429D01*
X155228572Y-91892857D01*
X155242858Y-91835714D01*
X155242858Y-91792857D01*
X155228572Y-91735714D01*
X155214287Y-91707143D01*
X155185715Y-91678571D01*
X155142858Y-91664286D01*
X155114287Y-91664286D01*
X155071430Y-91678571D01*
X155057144Y-91692857D01*
X155057144Y-91792857D01*
X155114287Y-91792857D01*
X154928572Y-91664286D02*
X154928572Y-91964286D01*
X154757144Y-91664286D01*
X154757144Y-91964286D01*
X154614286Y-91664286D02*
X154614286Y-91964286D01*
X154542858Y-91964286D01*
X154500001Y-91950000D01*
X154471429Y-91921429D01*
X154457144Y-91892857D01*
X154442858Y-91835714D01*
X154442858Y-91792857D01*
X154457144Y-91735714D01*
X154471429Y-91707143D01*
X154500001Y-91678571D01*
X154542858Y-91664286D01*
X154614286Y-91664286D01*
X153857144Y-91664286D02*
X153857144Y-91964286D01*
X153785716Y-91964286D01*
X153742859Y-91950000D01*
X153714287Y-91921429D01*
X153700002Y-91892857D01*
X153685716Y-91835714D01*
X153685716Y-91792857D01*
X153700002Y-91735714D01*
X153714287Y-91707143D01*
X153742859Y-91678571D01*
X153785716Y-91664286D01*
X153857144Y-91664286D01*
X153557144Y-91664286D02*
X153557144Y-91964286D01*
X153414287Y-91664286D02*
X153414287Y-91964286D01*
X153242859Y-91664286D01*
X153242859Y-91964286D01*
D12*
X155977631Y-98373592D02*
X156110965Y-98773592D01*
X156244298Y-98373592D01*
X156587155Y-98773592D02*
X156358583Y-98773592D01*
X156472869Y-98773592D02*
X156472869Y-98373592D01*
X156434774Y-98430735D01*
X156396679Y-98468830D01*
X156358583Y-98487878D01*
X155456366Y-95278552D02*
X155456366Y-94878552D01*
X155551604Y-94878552D01*
X155608747Y-94897600D01*
X155646842Y-94935695D01*
X155665890Y-94973790D01*
X155684938Y-95049981D01*
X155684938Y-95107124D01*
X155665890Y-95183314D01*
X155646842Y-95221410D01*
X155608747Y-95259505D01*
X155551604Y-95278552D01*
X155456366Y-95278552D01*
X156046842Y-95278552D02*
X155856366Y-95278552D01*
X155856366Y-94878552D01*
X156180176Y-95069029D02*
X156313509Y-95069029D01*
X156370652Y-95278552D02*
X156180176Y-95278552D01*
X156180176Y-94878552D01*
X156370652Y-94878552D01*
X156542081Y-95126171D02*
X156846843Y-95126171D01*
X157246843Y-95278552D02*
X157018271Y-95278552D01*
X157132557Y-95278552D02*
X157132557Y-94878552D01*
X157094462Y-94935695D01*
X157056367Y-94973790D01*
X157018271Y-94992838D01*
D11*
X153957965Y-93727909D02*
X154091298Y-93727909D01*
X154148441Y-93937432D02*
X153957965Y-93937432D01*
X153957965Y-93537432D01*
X154148441Y-93537432D01*
X154491299Y-93937432D02*
X154491299Y-93727909D01*
X154472251Y-93689813D01*
X154434156Y-93670766D01*
X154357965Y-93670766D01*
X154319870Y-93689813D01*
X154491299Y-93918385D02*
X154453203Y-93937432D01*
X154357965Y-93937432D01*
X154319870Y-93918385D01*
X154300822Y-93880290D01*
X154300822Y-93842194D01*
X154319870Y-93804099D01*
X154357965Y-93785051D01*
X154453203Y-93785051D01*
X154491299Y-93766004D01*
X154853204Y-93670766D02*
X154853204Y-93994575D01*
X154834156Y-94032670D01*
X154815108Y-94051718D01*
X154777013Y-94070766D01*
X154719870Y-94070766D01*
X154681775Y-94051718D01*
X154853204Y-93918385D02*
X154815108Y-93937432D01*
X154738918Y-93937432D01*
X154700823Y-93918385D01*
X154681775Y-93899337D01*
X154662727Y-93861242D01*
X154662727Y-93746956D01*
X154681775Y-93708861D01*
X154700823Y-93689813D01*
X154738918Y-93670766D01*
X154815108Y-93670766D01*
X154853204Y-93689813D01*
X155100823Y-93937432D02*
X155062728Y-93918385D01*
X155043680Y-93880290D01*
X155043680Y-93537432D01*
X155405585Y-93918385D02*
X155367490Y-93937432D01*
X155291299Y-93937432D01*
X155253204Y-93918385D01*
X155234156Y-93880290D01*
X155234156Y-93727909D01*
X155253204Y-93689813D01*
X155291299Y-93670766D01*
X155367490Y-93670766D01*
X155405585Y-93689813D01*
X155424633Y-93727909D01*
X155424633Y-93766004D01*
X155234156Y-93804099D01*
X155596061Y-93937432D02*
X155596061Y-93537432D01*
X155691299Y-93537432D01*
X155748442Y-93556480D01*
X155786537Y-93594575D01*
X155805585Y-93632670D01*
X155824633Y-93708861D01*
X155824633Y-93766004D01*
X155805585Y-93842194D01*
X155786537Y-93880290D01*
X155748442Y-93918385D01*
X155691299Y-93937432D01*
X155596061Y-93937432D01*
X156148442Y-93918385D02*
X156110347Y-93937432D01*
X156034156Y-93937432D01*
X155996061Y-93918385D01*
X155977013Y-93880290D01*
X155977013Y-93727909D01*
X155996061Y-93689813D01*
X156034156Y-93670766D01*
X156110347Y-93670766D01*
X156148442Y-93689813D01*
X156167490Y-93727909D01*
X156167490Y-93766004D01*
X155977013Y-93804099D01*
X156510347Y-93918385D02*
X156472251Y-93937432D01*
X156396061Y-93937432D01*
X156357966Y-93918385D01*
X156338918Y-93899337D01*
X156319870Y-93861242D01*
X156319870Y-93746956D01*
X156338918Y-93708861D01*
X156357966Y-93689813D01*
X156396061Y-93670766D01*
X156472251Y-93670766D01*
X156510347Y-93689813D01*
X156738918Y-93937432D02*
X156700823Y-93918385D01*
X156681775Y-93899337D01*
X156662727Y-93861242D01*
X156662727Y-93746956D01*
X156681775Y-93708861D01*
X156700823Y-93689813D01*
X156738918Y-93670766D01*
X156796061Y-93670766D01*
X156834156Y-93689813D01*
X156853204Y-93708861D01*
X156872251Y-93746956D01*
X156872251Y-93861242D01*
X156853204Y-93899337D01*
X156834156Y-93918385D01*
X156796061Y-93937432D01*
X156738918Y-93937432D01*
X157043680Y-93937432D02*
X157043680Y-93670766D01*
X157043680Y-93746956D02*
X157062728Y-93708861D01*
X157081775Y-93689813D01*
X157119871Y-93670766D01*
X157157966Y-93670766D01*
X157462728Y-93937432D02*
X157462728Y-93727909D01*
X157443680Y-93689813D01*
X157405585Y-93670766D01*
X157329394Y-93670766D01*
X157291299Y-93689813D01*
X157462728Y-93918385D02*
X157424632Y-93937432D01*
X157329394Y-93937432D01*
X157291299Y-93918385D01*
X157272251Y-93880290D01*
X157272251Y-93842194D01*
X157291299Y-93804099D01*
X157329394Y-93785051D01*
X157424632Y-93785051D01*
X157462728Y-93766004D01*
X157596061Y-93670766D02*
X157748442Y-93670766D01*
X157653204Y-93537432D02*
X157653204Y-93880290D01*
X157672252Y-93918385D01*
X157710347Y-93937432D01*
X157748442Y-93937432D01*
X157881775Y-93937432D02*
X157881775Y-93670766D01*
X157881775Y-93537432D02*
X157862727Y-93556480D01*
X157881775Y-93575528D01*
X157900823Y-93556480D01*
X157881775Y-93537432D01*
X157881775Y-93575528D01*
X158129394Y-93937432D02*
X158091299Y-93918385D01*
X158072251Y-93899337D01*
X158053203Y-93861242D01*
X158053203Y-93746956D01*
X158072251Y-93708861D01*
X158091299Y-93689813D01*
X158129394Y-93670766D01*
X158186537Y-93670766D01*
X158224632Y-93689813D01*
X158243680Y-93708861D01*
X158262727Y-93746956D01*
X158262727Y-93861242D01*
X158243680Y-93899337D01*
X158224632Y-93918385D01*
X158186537Y-93937432D01*
X158129394Y-93937432D01*
X158434156Y-93670766D02*
X158434156Y-93937432D01*
X158434156Y-93708861D02*
X158453204Y-93689813D01*
X158491299Y-93670766D01*
X158548442Y-93670766D01*
X158586537Y-93689813D01*
X158605585Y-93727909D01*
X158605585Y-93937432D01*
X158777013Y-93918385D02*
X158815109Y-93937432D01*
X158891299Y-93937432D01*
X158929394Y-93918385D01*
X158948442Y-93880290D01*
X158948442Y-93861242D01*
X158929394Y-93823147D01*
X158891299Y-93804099D01*
X158834156Y-93804099D01*
X158796061Y-93785051D01*
X158777013Y-93746956D01*
X158777013Y-93727909D01*
X158796061Y-93689813D01*
X158834156Y-93670766D01*
X158891299Y-93670766D01*
X158929394Y-93689813D01*
D13*
X156962423Y-96784160D02*
G75*
G03X156962423Y-96784160I-620343J0D01*
G01*
X155362400Y-97824800D02*
X155362400Y-95824800D01*
X155362400Y-95824800D02*
X157362400Y-95824800D01*
X157362400Y-95824800D02*
X157362400Y-97324800D01*
X157362400Y-97324800D02*
X156862400Y-97824800D01*
X156862400Y-97824800D02*
X155362400Y-97824800D01*
X155362400Y-99324800D02*
X157362400Y-99324800D01*
X158862400Y-97324800D02*
X158862400Y-96324800D01*
X155362400Y-94324800D02*
X157362400Y-94324800D01*
X153862400Y-97324800D02*
X153862400Y-96324800D01*
D14*
X152455496Y-88133718D02*
X152170179Y-88041012D01*
X152075074Y-88010111D02*
X152265285Y-88071914D01*
X152146479Y-89084774D02*
X151766057Y-88961167D01*
X151837462Y-90035831D02*
X151552145Y-89943126D01*
X151457040Y-89912224D02*
X151552145Y-89943126D01*
X151528445Y-90986887D02*
X151148023Y-90863280D01*
X148129258Y-101448509D02*
X147748836Y-101324902D01*
X148057853Y-100373846D02*
X148248064Y-100435649D01*
X148438275Y-100497452D02*
X148152958Y-100404747D01*
X148747292Y-99546396D02*
X148366870Y-99422789D01*
X148675887Y-98471732D02*
X149056309Y-98595339D01*
X146908167Y-97829430D02*
X146731831Y-98072135D01*
X146673053Y-98153037D02*
X146790610Y-97991233D01*
X147717184Y-98417215D02*
X147482070Y-98740822D01*
X148526201Y-99005001D02*
X148349865Y-99247706D01*
X148291087Y-99328607D02*
X148349865Y-99247706D01*
X149335218Y-99592786D02*
X149100104Y-99916393D01*
X158234405Y-106058424D02*
X157999291Y-106382030D01*
X157190274Y-105794245D02*
X157307831Y-105632442D01*
X157425388Y-105470638D02*
X157249052Y-105713343D01*
X156616371Y-104882853D02*
X156381257Y-105206460D01*
X155572240Y-104618675D02*
X155807354Y-104295068D01*
X164636182Y-101407869D02*
X164921499Y-101315164D01*
X165016604Y-101284262D02*
X164826393Y-101346065D01*
X164327165Y-100456812D02*
X164707587Y-100333206D01*
X164018148Y-99505756D02*
X164303465Y-99413051D01*
X164398570Y-99382149D02*
X164303465Y-99413051D01*
X163709131Y-98554699D02*
X164089553Y-98431092D01*
X160309944Y-88093078D02*
X160690366Y-87969471D01*
X160999383Y-88920527D02*
X160809172Y-88982331D01*
X160618961Y-89044134D02*
X160904278Y-88951429D01*
X160927978Y-89995191D02*
X161308400Y-89871584D01*
X161617417Y-90822640D02*
X161236995Y-90946247D01*
X154510715Y-106078744D02*
X154687051Y-106321449D01*
X154745829Y-106402350D02*
X154628272Y-106240547D01*
X155319732Y-105490958D02*
X155554846Y-105814565D01*
X156128749Y-104903173D02*
X156305085Y-105145878D01*
X156363863Y-105226780D02*
X156305085Y-105145878D01*
X156937766Y-104315388D02*
X157172880Y-104638995D01*
X165836953Y-97849750D02*
X166072067Y-98173357D01*
X165263050Y-98761142D02*
X165145493Y-98599339D01*
X165027936Y-98437535D02*
X165204272Y-98680240D01*
X164218919Y-99025321D02*
X164454033Y-99348927D01*
X163645016Y-99936713D02*
X163409902Y-99613106D01*
X163362400Y-90430400D02*
X163362400Y-90130400D01*
X163362400Y-90030400D02*
X163362400Y-90230400D01*
X162362400Y-90430400D02*
X162362400Y-90030400D01*
X161362400Y-90430400D02*
X161362400Y-90130400D01*
X161362400Y-90030400D02*
X161362400Y-90130400D01*
X160362400Y-90430400D02*
X160362400Y-90030400D01*
X149362400Y-90430400D02*
X149362400Y-90030400D01*
X150362400Y-90030400D02*
X150362400Y-90230400D01*
X150362400Y-90430400D02*
X150362400Y-90130400D01*
X151362400Y-90430400D02*
X151362400Y-90030400D01*
X152362400Y-90030400D02*
X152362400Y-90430400D01*
D13*
D14*
M02*
