M48
;DRILL file {KiCad 4.0.7} date 01/08/18 14:04:25
;FORMAT={-:-/ absolute / inch / decimal}
FMAT,2
INCH,TZ
T1C0.016
T2C0.031
%
G90
G05
M72
T1
X5.9724Y-3.8268
X5.994Y-3.8634
X6.0444Y-3.6822
X6.048Y-3.6378
X6.1176Y-3.9942
X6.156Y-3.9792
X6.2418Y-3.669
X6.2874Y-3.6545
X6.3186Y-3.8526
X6.3234Y-3.897
T2
X5.8979Y-3.8416
X5.915Y-3.7892
X5.9268Y-3.936
X5.932Y-3.7368
X5.949Y-3.6844
X5.9661Y-3.632
X5.9714Y-3.9684
X6.016Y-4.0008
X6.0458Y-3.576
X6.0606Y-4.0332
X6.1009Y-3.576
X6.1052Y-4.0656
X6.156Y-3.576
X6.2076Y-4.0664
X6.2111Y-3.576
X6.2522Y-4.034
X6.2662Y-3.576
X6.2968Y-4.0016
X6.3414Y-3.9692
X6.3475Y-3.6304
X6.3646Y-3.6828
X6.3816Y-3.7352
X6.386Y-3.9368
X6.3986Y-3.7876
X6.4157Y-3.84
T0
M30
