M48
;DRILL file {KiCad 4.0.7} date 01/18/18 14:58:43
;FORMAT={-:-/ absolute / inch / decimal}
FMAT,2
INCH,TZ
T1C0.016
T2C0.039
%
G90
G05
M72
T1
X5.9843Y-3.7894
X5.9921Y-3.7441
X6.0748Y-3.3898
X6.128Y-3.3976
X6.1496Y-3.5315
X6.1634Y-3.6791
X6.2736Y-3.9646
X6.3209Y-4.
X6.372Y-3.7421
X6.4843Y-3.8445
X6.4921Y-3.3701
X6.4941Y-3.437
X6.5Y-3.6772
X6.6201Y-3.7323
X6.6457Y-3.7972
T2
X5.8504Y-3.7244
X5.8813Y-3.6293
X5.8929Y-3.8633
X5.9122Y-3.5342
X5.9431Y-3.4391
X5.9738Y-3.9221
X5.974Y-3.344
X6.0547Y-3.9809
X6.0925Y-3.2579
X6.1356Y-4.0396
X6.1925Y-3.2579
X6.2165Y-4.0984
X6.2925Y-3.2579
X6.3654Y-4.1013
X6.3925Y-3.2579
X6.4463Y-4.0425
X6.4925Y-3.2579
X6.5272Y-3.9837
X6.6081Y-3.9249
X6.6102Y-3.3465
X6.6411Y-3.4416
X6.672Y-3.5367
X6.689Y-3.8661
X6.7029Y-3.6318
X6.7338Y-3.7269
T0
M30
