G04 #@! TF.FileFunction,Legend,Top*
%FSLAX46Y46*%
G04 Gerber Fmt 4.6, Leading zero omitted, Abs format (unit mm)*
G04 Created by KiCad (PCBNEW 4.0.7) date 05/29/18 15:24:09*
%MOMM*%
%LPD*%
G01*
G04 APERTURE LIST*
%ADD10C,0.100000*%
%ADD11C,0.250000*%
%ADD12C,0.075000*%
%ADD13C,0.150000*%
%ADD14C,0.200000*%
%ADD15C,0.120000*%
G04 APERTURE END LIST*
D10*
D11*
X164230086Y-94721419D02*
X164277705Y-94673800D01*
X164372943Y-94626181D01*
X164611039Y-94626181D01*
X164706277Y-94673800D01*
X164753896Y-94721419D01*
X164801515Y-94816657D01*
X164801515Y-94911895D01*
X164753896Y-95054752D01*
X164182467Y-95626181D01*
X164801515Y-95626181D01*
X155089267Y-94676981D02*
X155708315Y-94676981D01*
X155374981Y-95057933D01*
X155517839Y-95057933D01*
X155613077Y-95105552D01*
X155660696Y-95153171D01*
X155708315Y-95248410D01*
X155708315Y-95486505D01*
X155660696Y-95581743D01*
X155613077Y-95629362D01*
X155517839Y-95676981D01*
X155232124Y-95676981D01*
X155136886Y-95629362D01*
X155089267Y-95581743D01*
X160385715Y-88002381D02*
X159814286Y-88002381D01*
X160100000Y-88002381D02*
X160100000Y-87002381D01*
X160004762Y-87145238D01*
X159909524Y-87240476D01*
X159814286Y-87288095D01*
D12*
X153632714Y-90459514D02*
X153847000Y-90459514D01*
X153889857Y-90473800D01*
X153918429Y-90502371D01*
X153932714Y-90545228D01*
X153932714Y-90573800D01*
X153732714Y-90188086D02*
X153932714Y-90188086D01*
X153732714Y-90316657D02*
X153889857Y-90316657D01*
X153918429Y-90302372D01*
X153932714Y-90273800D01*
X153932714Y-90230943D01*
X153918429Y-90202372D01*
X153904143Y-90188086D01*
X153932714Y-90045228D02*
X153732714Y-90045228D01*
X153761286Y-90045228D02*
X153747000Y-90030943D01*
X153732714Y-90002371D01*
X153732714Y-89959514D01*
X153747000Y-89930943D01*
X153775571Y-89916657D01*
X153932714Y-89916657D01*
X153775571Y-89916657D02*
X153747000Y-89902371D01*
X153732714Y-89873800D01*
X153732714Y-89830943D01*
X153747000Y-89802371D01*
X153775571Y-89788086D01*
X153932714Y-89788086D01*
X153732714Y-89645228D02*
X154032714Y-89645228D01*
X153747000Y-89645228D02*
X153732714Y-89616657D01*
X153732714Y-89559514D01*
X153747000Y-89530943D01*
X153761286Y-89516657D01*
X153789857Y-89502371D01*
X153875571Y-89502371D01*
X153904143Y-89516657D01*
X153918429Y-89530943D01*
X153932714Y-89559514D01*
X153932714Y-89616657D01*
X153918429Y-89645228D01*
X153732714Y-89188086D02*
X153732714Y-89073800D01*
X153932714Y-89145228D02*
X153675571Y-89145228D01*
X153647000Y-89130943D01*
X153632714Y-89102371D01*
X153632714Y-89073800D01*
X153932714Y-88930942D02*
X153918429Y-88959514D01*
X153904143Y-88973799D01*
X153875571Y-88988085D01*
X153789857Y-88988085D01*
X153761286Y-88973799D01*
X153747000Y-88959514D01*
X153732714Y-88930942D01*
X153732714Y-88888085D01*
X153747000Y-88859514D01*
X153761286Y-88845228D01*
X153789857Y-88830942D01*
X153875571Y-88830942D01*
X153904143Y-88845228D01*
X153918429Y-88859514D01*
X153932714Y-88888085D01*
X153932714Y-88930942D01*
X153932714Y-88702370D02*
X153732714Y-88702370D01*
X153789857Y-88702370D02*
X153761286Y-88688085D01*
X153747000Y-88673799D01*
X153732714Y-88645228D01*
X153732714Y-88616656D01*
X153932714Y-88130943D02*
X153932714Y-88302371D01*
X153932714Y-88216657D02*
X153632714Y-88216657D01*
X153675571Y-88245228D01*
X153704143Y-88273800D01*
X153718429Y-88302371D01*
X153932714Y-87630943D02*
X153932714Y-87773800D01*
X153632714Y-87773800D01*
X153775571Y-87530943D02*
X153775571Y-87430943D01*
X153932714Y-87388086D02*
X153932714Y-87530943D01*
X153632714Y-87530943D01*
X153632714Y-87388086D01*
X153932714Y-87259514D02*
X153632714Y-87259514D01*
X153632714Y-87188086D01*
X153647000Y-87145229D01*
X153675571Y-87116657D01*
X153704143Y-87102372D01*
X153761286Y-87088086D01*
X153804143Y-87088086D01*
X153861286Y-87102372D01*
X153889857Y-87116657D01*
X153918429Y-87145229D01*
X153932714Y-87188086D01*
X153932714Y-87259514D01*
D13*
X158630952Y-99211905D02*
X158897619Y-100011905D01*
X159164286Y-99211905D01*
X159850000Y-100011905D02*
X159392857Y-100011905D01*
X159621428Y-100011905D02*
X159621428Y-99211905D01*
X159545238Y-99326190D01*
X159469047Y-99402381D01*
X159392857Y-99440476D01*
X160192857Y-99935714D02*
X160230952Y-99973810D01*
X160192857Y-100011905D01*
X160154762Y-99973810D01*
X160192857Y-99935714D01*
X160192857Y-100011905D01*
X160497619Y-99211905D02*
X160992857Y-99211905D01*
X160726190Y-99516667D01*
X160840476Y-99516667D01*
X160916666Y-99554762D01*
X160954762Y-99592857D01*
X160992857Y-99669048D01*
X160992857Y-99859524D01*
X160954762Y-99935714D01*
X160916666Y-99973810D01*
X160840476Y-100011905D01*
X160611904Y-100011905D01*
X160535714Y-99973810D01*
X160497619Y-99935714D01*
X158178571Y-98811905D02*
X158178571Y-98011905D01*
X158369047Y-98011905D01*
X158483333Y-98050000D01*
X158559524Y-98126190D01*
X158597619Y-98202381D01*
X158635714Y-98354762D01*
X158635714Y-98469048D01*
X158597619Y-98621429D01*
X158559524Y-98697619D01*
X158483333Y-98773810D01*
X158369047Y-98811905D01*
X158178571Y-98811905D01*
X159359524Y-98811905D02*
X158978571Y-98811905D01*
X158978571Y-98011905D01*
X159626190Y-98392857D02*
X159892857Y-98392857D01*
X160007143Y-98811905D02*
X159626190Y-98811905D01*
X159626190Y-98011905D01*
X160007143Y-98011905D01*
X160350000Y-98507143D02*
X160959524Y-98507143D01*
X161264286Y-98011905D02*
X161759524Y-98011905D01*
X161492857Y-98316667D01*
X161607143Y-98316667D01*
X161683333Y-98354762D01*
X161721429Y-98392857D01*
X161759524Y-98469048D01*
X161759524Y-98659524D01*
X161721429Y-98735714D01*
X161683333Y-98773810D01*
X161607143Y-98811905D01*
X161378571Y-98811905D01*
X161302381Y-98773810D01*
X161264286Y-98735714D01*
X154398570Y-91032857D02*
X154665237Y-91032857D01*
X154779523Y-91451905D02*
X154398570Y-91451905D01*
X154398570Y-90651905D01*
X154779523Y-90651905D01*
X155465237Y-91451905D02*
X155465237Y-91032857D01*
X155427142Y-90956667D01*
X155350952Y-90918571D01*
X155198571Y-90918571D01*
X155122380Y-90956667D01*
X155465237Y-91413810D02*
X155389047Y-91451905D01*
X155198571Y-91451905D01*
X155122380Y-91413810D01*
X155084285Y-91337619D01*
X155084285Y-91261429D01*
X155122380Y-91185238D01*
X155198571Y-91147143D01*
X155389047Y-91147143D01*
X155465237Y-91109048D01*
X156189047Y-90918571D02*
X156189047Y-91566190D01*
X156150952Y-91642381D01*
X156112857Y-91680476D01*
X156036666Y-91718571D01*
X155922381Y-91718571D01*
X155846190Y-91680476D01*
X156189047Y-91413810D02*
X156112857Y-91451905D01*
X155960476Y-91451905D01*
X155884285Y-91413810D01*
X155846190Y-91375714D01*
X155808095Y-91299524D01*
X155808095Y-91070952D01*
X155846190Y-90994762D01*
X155884285Y-90956667D01*
X155960476Y-90918571D01*
X156112857Y-90918571D01*
X156189047Y-90956667D01*
X156684286Y-91451905D02*
X156608095Y-91413810D01*
X156570000Y-91337619D01*
X156570000Y-90651905D01*
X157293810Y-91413810D02*
X157217620Y-91451905D01*
X157065239Y-91451905D01*
X156989048Y-91413810D01*
X156950953Y-91337619D01*
X156950953Y-91032857D01*
X156989048Y-90956667D01*
X157065239Y-90918571D01*
X157217620Y-90918571D01*
X157293810Y-90956667D01*
X157331905Y-91032857D01*
X157331905Y-91109048D01*
X156950953Y-91185238D01*
X157674762Y-91451905D02*
X157674762Y-90651905D01*
X157865238Y-90651905D01*
X157979524Y-90690000D01*
X158055715Y-90766190D01*
X158093810Y-90842381D01*
X158131905Y-90994762D01*
X158131905Y-91109048D01*
X158093810Y-91261429D01*
X158055715Y-91337619D01*
X157979524Y-91413810D01*
X157865238Y-91451905D01*
X157674762Y-91451905D01*
X158779524Y-91413810D02*
X158703334Y-91451905D01*
X158550953Y-91451905D01*
X158474762Y-91413810D01*
X158436667Y-91337619D01*
X158436667Y-91032857D01*
X158474762Y-90956667D01*
X158550953Y-90918571D01*
X158703334Y-90918571D01*
X158779524Y-90956667D01*
X158817619Y-91032857D01*
X158817619Y-91109048D01*
X158436667Y-91185238D01*
X159503333Y-91413810D02*
X159427143Y-91451905D01*
X159274762Y-91451905D01*
X159198571Y-91413810D01*
X159160476Y-91375714D01*
X159122381Y-91299524D01*
X159122381Y-91070952D01*
X159160476Y-90994762D01*
X159198571Y-90956667D01*
X159274762Y-90918571D01*
X159427143Y-90918571D01*
X159503333Y-90956667D01*
X159960476Y-91451905D02*
X159884285Y-91413810D01*
X159846190Y-91375714D01*
X159808095Y-91299524D01*
X159808095Y-91070952D01*
X159846190Y-90994762D01*
X159884285Y-90956667D01*
X159960476Y-90918571D01*
X160074762Y-90918571D01*
X160150952Y-90956667D01*
X160189047Y-90994762D01*
X160227143Y-91070952D01*
X160227143Y-91299524D01*
X160189047Y-91375714D01*
X160150952Y-91413810D01*
X160074762Y-91451905D01*
X159960476Y-91451905D01*
X160570000Y-91451905D02*
X160570000Y-90918571D01*
X160570000Y-91070952D02*
X160608095Y-90994762D01*
X160646191Y-90956667D01*
X160722381Y-90918571D01*
X160798572Y-90918571D01*
X161408095Y-91451905D02*
X161408095Y-91032857D01*
X161370000Y-90956667D01*
X161293810Y-90918571D01*
X161141429Y-90918571D01*
X161065238Y-90956667D01*
X161408095Y-91413810D02*
X161331905Y-91451905D01*
X161141429Y-91451905D01*
X161065238Y-91413810D01*
X161027143Y-91337619D01*
X161027143Y-91261429D01*
X161065238Y-91185238D01*
X161141429Y-91147143D01*
X161331905Y-91147143D01*
X161408095Y-91109048D01*
X161674762Y-90918571D02*
X161979524Y-90918571D01*
X161789048Y-90651905D02*
X161789048Y-91337619D01*
X161827143Y-91413810D01*
X161903334Y-91451905D01*
X161979524Y-91451905D01*
X162246191Y-91451905D02*
X162246191Y-90918571D01*
X162246191Y-90651905D02*
X162208096Y-90690000D01*
X162246191Y-90728095D01*
X162284286Y-90690000D01*
X162246191Y-90651905D01*
X162246191Y-90728095D01*
X162741429Y-91451905D02*
X162665238Y-91413810D01*
X162627143Y-91375714D01*
X162589048Y-91299524D01*
X162589048Y-91070952D01*
X162627143Y-90994762D01*
X162665238Y-90956667D01*
X162741429Y-90918571D01*
X162855715Y-90918571D01*
X162931905Y-90956667D01*
X162970000Y-90994762D01*
X163008096Y-91070952D01*
X163008096Y-91299524D01*
X162970000Y-91375714D01*
X162931905Y-91413810D01*
X162855715Y-91451905D01*
X162741429Y-91451905D01*
X163350953Y-90918571D02*
X163350953Y-91451905D01*
X163350953Y-90994762D02*
X163389048Y-90956667D01*
X163465239Y-90918571D01*
X163579525Y-90918571D01*
X163655715Y-90956667D01*
X163693810Y-91032857D01*
X163693810Y-91451905D01*
X164036668Y-91413810D02*
X164112858Y-91451905D01*
X164265239Y-91451905D01*
X164341430Y-91413810D01*
X164379525Y-91337619D01*
X164379525Y-91299524D01*
X164341430Y-91223333D01*
X164265239Y-91185238D01*
X164150954Y-91185238D01*
X164074763Y-91147143D01*
X164036668Y-91070952D01*
X164036668Y-91032857D01*
X164074763Y-90956667D01*
X164150954Y-90918571D01*
X164265239Y-90918571D01*
X164341430Y-90956667D01*
D14*
X159050000Y-88550000D02*
X159050000Y-86550000D01*
X159050000Y-86550000D02*
X161050000Y-86550000D01*
X161050000Y-86550000D02*
X161050000Y-88050000D01*
X161050000Y-88050000D02*
X160550000Y-88550000D01*
X160550000Y-88550000D02*
X159050000Y-88550000D01*
X159050000Y-90050000D02*
X161050000Y-90050000D01*
X162550000Y-88050000D02*
X162550000Y-87050000D01*
X159050000Y-85050000D02*
X161050000Y-85050000D01*
X157550000Y-88050000D02*
X157550000Y-87050000D01*
X163541200Y-96199200D02*
X163541200Y-94199200D01*
X163541200Y-94199200D02*
X165541200Y-94199200D01*
X165541200Y-94199200D02*
X165541200Y-95699200D01*
X165541200Y-95699200D02*
X165041200Y-96199200D01*
X165041200Y-96199200D02*
X163541200Y-96199200D01*
X163541200Y-97699200D02*
X165541200Y-97699200D01*
X167041200Y-95699200D02*
X167041200Y-94699200D01*
X163541200Y-92699200D02*
X165541200Y-92699200D01*
X162041200Y-95699200D02*
X162041200Y-94699200D01*
X154448000Y-96199200D02*
X154448000Y-94199200D01*
X154448000Y-94199200D02*
X156448000Y-94199200D01*
X156448000Y-94199200D02*
X156448000Y-95699200D01*
X156448000Y-95699200D02*
X155948000Y-96199200D01*
X155948000Y-96199200D02*
X154448000Y-96199200D01*
X154448000Y-97699200D02*
X156448000Y-97699200D01*
X157948000Y-95699200D02*
X157948000Y-94699200D01*
X154448000Y-92699200D02*
X156448000Y-92699200D01*
X152948000Y-95699200D02*
X152948000Y-94699200D01*
D15*
X154220000Y-89400000D02*
X154220000Y-88200000D01*
X155980000Y-88200000D02*
X155980000Y-89400000D01*
X164580000Y-89340000D02*
X164580000Y-90340000D01*
X166280000Y-90340000D02*
X166280000Y-89340000D01*
D14*
D13*
D10*
X156399426Y-101093863D02*
X156374896Y-101046611D01*
X156317110Y-101004626D01*
X156245328Y-100981904D01*
X156178813Y-100992439D01*
X156131562Y-101016969D01*
X156056319Y-101080023D01*
X156014334Y-101137810D01*
X155977618Y-101228855D01*
X155968890Y-101281374D01*
X155979425Y-101347888D01*
X156023217Y-101409135D01*
X156061742Y-101437125D01*
X156133523Y-101459847D01*
X156166781Y-101454580D01*
X156264745Y-101319744D01*
X156187695Y-101263764D01*
X156312152Y-101619058D02*
X156606045Y-101214550D01*
X156543300Y-101786997D01*
X156837192Y-101382488D01*
X156735923Y-101926946D02*
X157029816Y-101522438D01*
X157126127Y-101592412D01*
X157169919Y-101653659D01*
X157180454Y-101720174D01*
X157171726Y-101772693D01*
X157135009Y-101863737D01*
X157093024Y-101921524D01*
X157017782Y-101984578D01*
X156970531Y-102009108D01*
X156904016Y-102019643D01*
X156832234Y-101996920D01*
X156735923Y-101926946D01*
X149514483Y-96680263D02*
X149808376Y-96275755D01*
X149904687Y-96345729D01*
X149948479Y-96406976D01*
X149959014Y-96473491D01*
X149950286Y-96526010D01*
X149913569Y-96617054D01*
X149871584Y-96674841D01*
X149796342Y-96737895D01*
X149749090Y-96762425D01*
X149682576Y-96772960D01*
X149610794Y-96750237D01*
X149514483Y-96680263D01*
X150289933Y-96625627D02*
X150366982Y-96681606D01*
X150391512Y-96728859D01*
X150402047Y-96795373D01*
X150365329Y-96886417D01*
X150267365Y-97021253D01*
X150192123Y-97084308D01*
X150125609Y-97094843D01*
X150073090Y-97086115D01*
X149996041Y-97030135D01*
X149971511Y-96982884D01*
X149960976Y-96916369D01*
X149997693Y-96825325D01*
X150095657Y-96690489D01*
X150170899Y-96627435D01*
X150237413Y-96616900D01*
X150289933Y-96625627D01*
X150636655Y-96877535D02*
X150398742Y-97204994D01*
X150390014Y-97257514D01*
X150395282Y-97290771D01*
X150419812Y-97338023D01*
X150496861Y-97394003D01*
X150549380Y-97402730D01*
X150582637Y-97397462D01*
X150629890Y-97372933D01*
X150867803Y-97045474D01*
X151002639Y-97143438D02*
X151233787Y-97311376D01*
X150824320Y-97631916D02*
X151118213Y-97227407D01*
X152273439Y-98096158D02*
X152248909Y-98048906D01*
X152191123Y-98006921D01*
X152119341Y-97984199D01*
X152052826Y-97994734D01*
X152005575Y-98019264D01*
X151930332Y-98082318D01*
X151888347Y-98140105D01*
X151851631Y-98231150D01*
X151842903Y-98283669D01*
X151853438Y-98350183D01*
X151897230Y-98411430D01*
X151935755Y-98439420D01*
X152007536Y-98462142D01*
X152040794Y-98456875D01*
X152138758Y-98322039D01*
X152061708Y-98266059D01*
X152186165Y-98621353D02*
X152480058Y-98216845D01*
X152417313Y-98789292D01*
X152711205Y-98384783D01*
X152609936Y-98929241D02*
X152903829Y-98524733D01*
X153000140Y-98594707D01*
X153043932Y-98655954D01*
X153054467Y-98722469D01*
X153045739Y-98774988D01*
X153009022Y-98866032D01*
X152967037Y-98923819D01*
X152891795Y-98986873D01*
X152844544Y-99011403D01*
X152778029Y-99021938D01*
X152706247Y-98999215D01*
X152609936Y-98929241D01*
X158036129Y-102871601D02*
X158330021Y-102467092D01*
X158426332Y-102537067D01*
X158470125Y-102598314D01*
X158480659Y-102664828D01*
X158471932Y-102717348D01*
X158435215Y-102808392D01*
X158393230Y-102866179D01*
X158317988Y-102929233D01*
X158270736Y-102953763D01*
X158204222Y-102964298D01*
X158132440Y-102941575D01*
X158036129Y-102871601D01*
X158440637Y-103165494D02*
X158734530Y-102760985D01*
X158633260Y-103305442D02*
X158927153Y-102900934D01*
X158864408Y-103473381D01*
X159158300Y-103068872D01*
X154078829Y-99378422D02*
X153919773Y-99880895D01*
X154348501Y-99574350D01*
X154448582Y-100206237D02*
X154415325Y-100211504D01*
X154343544Y-100188782D01*
X154305019Y-100160792D01*
X154261226Y-100099545D01*
X154250691Y-100033031D01*
X154259419Y-99980512D01*
X154296136Y-99889467D01*
X154338121Y-99831680D01*
X154413363Y-99768626D01*
X154460615Y-99744096D01*
X154527129Y-99733561D01*
X154598912Y-99756283D01*
X154637436Y-99784273D01*
X154681227Y-99845520D01*
X154686495Y-99878778D01*
X154853091Y-100500129D02*
X154819833Y-100505397D01*
X154748052Y-100482674D01*
X154709527Y-100454685D01*
X154665735Y-100393438D01*
X154655200Y-100326923D01*
X154663928Y-100274404D01*
X154700645Y-100183360D01*
X154742630Y-100125573D01*
X154817872Y-100062519D01*
X154865123Y-100037989D01*
X154931638Y-100027454D01*
X155003420Y-100050176D01*
X155041945Y-100078166D01*
X155085736Y-100139413D01*
X155091003Y-100172671D01*
D13*
D10*
X156969047Y-83800000D02*
X156921428Y-83776190D01*
X156850000Y-83776190D01*
X156778571Y-83800000D01*
X156730952Y-83847619D01*
X156707143Y-83895238D01*
X156683333Y-83990476D01*
X156683333Y-84061905D01*
X156707143Y-84157143D01*
X156730952Y-84204762D01*
X156778571Y-84252381D01*
X156850000Y-84276190D01*
X156897619Y-84276190D01*
X156969047Y-84252381D01*
X156992857Y-84228571D01*
X156992857Y-84061905D01*
X156897619Y-84061905D01*
X157207143Y-84276190D02*
X157207143Y-83776190D01*
X157492857Y-84276190D01*
X157492857Y-83776190D01*
X157730953Y-84276190D02*
X157730953Y-83776190D01*
X157850000Y-83776190D01*
X157921429Y-83800000D01*
X157969048Y-83847619D01*
X157992857Y-83895238D01*
X158016667Y-83990476D01*
X158016667Y-84061905D01*
X157992857Y-84157143D01*
X157969048Y-84204762D01*
X157921429Y-84252381D01*
X157850000Y-84276190D01*
X157730953Y-84276190D01*
X164204762Y-84276190D02*
X164204762Y-83776190D01*
X164323809Y-83776190D01*
X164395238Y-83800000D01*
X164442857Y-83847619D01*
X164466666Y-83895238D01*
X164490476Y-83990476D01*
X164490476Y-84061905D01*
X164466666Y-84157143D01*
X164442857Y-84204762D01*
X164395238Y-84252381D01*
X164323809Y-84276190D01*
X164204762Y-84276190D01*
X164800000Y-83776190D02*
X164895238Y-83776190D01*
X164942857Y-83800000D01*
X164990476Y-83847619D01*
X165014285Y-83942857D01*
X165014285Y-84109524D01*
X164990476Y-84204762D01*
X164942857Y-84252381D01*
X164895238Y-84276190D01*
X164800000Y-84276190D01*
X164752381Y-84252381D01*
X164704762Y-84204762D01*
X164680952Y-84109524D01*
X164680952Y-83942857D01*
X164704762Y-83847619D01*
X164752381Y-83800000D01*
X164800000Y-83776190D01*
X165228572Y-83776190D02*
X165228572Y-84180952D01*
X165252381Y-84228571D01*
X165276191Y-84252381D01*
X165323810Y-84276190D01*
X165419048Y-84276190D01*
X165466667Y-84252381D01*
X165490476Y-84228571D01*
X165514286Y-84180952D01*
X165514286Y-83776190D01*
X165680953Y-83776190D02*
X165966667Y-83776190D01*
X165823810Y-84276190D02*
X165823810Y-83776190D01*
X162069047Y-83800000D02*
X162021428Y-83776190D01*
X161950000Y-83776190D01*
X161878571Y-83800000D01*
X161830952Y-83847619D01*
X161807143Y-83895238D01*
X161783333Y-83990476D01*
X161783333Y-84061905D01*
X161807143Y-84157143D01*
X161830952Y-84204762D01*
X161878571Y-84252381D01*
X161950000Y-84276190D01*
X161997619Y-84276190D01*
X162069047Y-84252381D01*
X162092857Y-84228571D01*
X162092857Y-84061905D01*
X161997619Y-84061905D01*
X162307143Y-84276190D02*
X162307143Y-83776190D01*
X162592857Y-84276190D01*
X162592857Y-83776190D01*
X162830953Y-84276190D02*
X162830953Y-83776190D01*
X162950000Y-83776190D01*
X163021429Y-83800000D01*
X163069048Y-83847619D01*
X163092857Y-83895238D01*
X163116667Y-83990476D01*
X163116667Y-84061905D01*
X163092857Y-84157143D01*
X163069048Y-84204762D01*
X163021429Y-84252381D01*
X162950000Y-84276190D01*
X162830953Y-84276190D01*
X154338096Y-84276190D02*
X154338096Y-83776190D01*
X154457143Y-83776190D01*
X154528572Y-83800000D01*
X154576191Y-83847619D01*
X154600000Y-83895238D01*
X154623810Y-83990476D01*
X154623810Y-84061905D01*
X154600000Y-84157143D01*
X154576191Y-84204762D01*
X154528572Y-84252381D01*
X154457143Y-84276190D01*
X154338096Y-84276190D01*
X154838096Y-84276190D02*
X154838096Y-83776190D01*
X155076191Y-84276190D02*
X155076191Y-83776190D01*
X155361905Y-84276190D01*
X155361905Y-83776190D01*
X159283334Y-83776190D02*
X159450001Y-84276190D01*
X159616667Y-83776190D01*
X160069048Y-84228571D02*
X160045238Y-84252381D01*
X159973810Y-84276190D01*
X159926191Y-84276190D01*
X159854762Y-84252381D01*
X159807143Y-84204762D01*
X159783334Y-84157143D01*
X159759524Y-84061905D01*
X159759524Y-83990476D01*
X159783334Y-83895238D01*
X159807143Y-83847619D01*
X159854762Y-83800000D01*
X159926191Y-83776190D01*
X159973810Y-83776190D01*
X160045238Y-83800000D01*
X160069048Y-83823810D01*
X160569048Y-84228571D02*
X160545238Y-84252381D01*
X160473810Y-84276190D01*
X160426191Y-84276190D01*
X160354762Y-84252381D01*
X160307143Y-84204762D01*
X160283334Y-84157143D01*
X160259524Y-84061905D01*
X160259524Y-83990476D01*
X160283334Y-83895238D01*
X160307143Y-83847619D01*
X160354762Y-83800000D01*
X160426191Y-83776190D01*
X160473810Y-83776190D01*
X160545238Y-83800000D01*
X160569048Y-83823810D01*
D13*
D10*
X166577291Y-98698184D02*
X166524771Y-98706911D01*
X166466985Y-98748896D01*
X166423193Y-98810143D01*
X166412658Y-98876658D01*
X166421386Y-98929177D01*
X166458103Y-99020221D01*
X166500088Y-99078008D01*
X166575330Y-99141062D01*
X166622581Y-99165592D01*
X166689096Y-99176127D01*
X166760878Y-99153404D01*
X166799402Y-99125414D01*
X166843194Y-99064168D01*
X166848462Y-99030910D01*
X166750498Y-98896075D01*
X166673449Y-98952054D01*
X167049812Y-98943481D02*
X166755920Y-98538972D01*
X167280960Y-98775542D01*
X166987067Y-98371034D01*
X167473584Y-98635593D02*
X167179691Y-98231085D01*
X167276002Y-98161110D01*
X167347784Y-98138388D01*
X167414299Y-98148923D01*
X167461550Y-98173453D01*
X167536793Y-98236507D01*
X167578778Y-98294294D01*
X167615494Y-98385339D01*
X167624222Y-98437858D01*
X167613687Y-98504372D01*
X167569895Y-98565619D01*
X167473584Y-98635593D01*
X160252143Y-103882276D02*
X159958251Y-103477767D01*
X160054562Y-103407793D01*
X160126344Y-103385071D01*
X160192858Y-103395606D01*
X160240110Y-103420136D01*
X160315352Y-103483190D01*
X160357337Y-103540977D01*
X160394054Y-103632022D01*
X160402782Y-103684541D01*
X160392247Y-103751055D01*
X160348454Y-103812302D01*
X160252143Y-103882276D01*
X160439808Y-103127895D02*
X160516857Y-103071916D01*
X160569377Y-103063189D01*
X160635892Y-103073724D01*
X160711133Y-103136778D01*
X160809097Y-103271615D01*
X160845815Y-103362658D01*
X160835280Y-103429173D01*
X160810750Y-103476424D01*
X160733701Y-103532404D01*
X160681182Y-103541132D01*
X160614667Y-103530597D01*
X160539425Y-103467543D01*
X160441461Y-103332706D01*
X160404744Y-103241662D01*
X160415279Y-103175148D01*
X160439808Y-103127895D01*
X160786530Y-102875987D02*
X161024443Y-103203446D01*
X161071695Y-103227976D01*
X161104953Y-103233244D01*
X161157472Y-103224516D01*
X161234521Y-103168537D01*
X161259051Y-103121285D01*
X161264318Y-103088028D01*
X161255591Y-103035508D01*
X161017678Y-102708049D01*
X161152514Y-102610084D02*
X161383662Y-102442146D01*
X161561981Y-102930623D02*
X161268088Y-102526115D01*
X162451304Y-101695888D02*
X162398784Y-101704615D01*
X162340998Y-101746600D01*
X162297206Y-101807847D01*
X162286671Y-101874362D01*
X162295399Y-101926881D01*
X162332116Y-102017925D01*
X162374101Y-102075712D01*
X162449343Y-102138766D01*
X162496594Y-102163296D01*
X162563109Y-102173831D01*
X162634891Y-102151108D01*
X162673415Y-102123118D01*
X162717207Y-102061872D01*
X162722475Y-102028614D01*
X162624511Y-101893779D01*
X162547462Y-101949758D01*
X162923825Y-101941185D02*
X162629933Y-101536676D01*
X163154973Y-101773246D01*
X162861080Y-101368738D01*
X163347597Y-101633297D02*
X163053704Y-101228789D01*
X163150015Y-101158814D01*
X163221797Y-101136092D01*
X163288312Y-101146627D01*
X163335563Y-101171157D01*
X163410806Y-101234211D01*
X163452791Y-101291998D01*
X163489507Y-101383043D01*
X163498235Y-101435562D01*
X163487700Y-101502076D01*
X163443908Y-101563323D01*
X163347597Y-101633297D01*
X168773789Y-97690937D02*
X168479896Y-97286429D01*
X168576208Y-97216455D01*
X168647990Y-97193732D01*
X168714504Y-97204267D01*
X168761756Y-97228797D01*
X168836998Y-97291851D01*
X168878983Y-97349638D01*
X168915700Y-97440683D01*
X168924428Y-97493202D01*
X168913893Y-97559716D01*
X168870100Y-97620963D01*
X168773789Y-97690937D01*
X169178298Y-97397045D02*
X168884405Y-96992536D01*
X169370921Y-97257096D02*
X169077028Y-96852587D01*
X169602068Y-97089157D01*
X169308175Y-96684649D01*
X164228705Y-100375100D02*
X164657434Y-100681645D01*
X164498377Y-100179172D01*
X165130264Y-100279253D02*
X165124997Y-100312511D01*
X165081205Y-100373757D01*
X165042680Y-100401747D01*
X164970898Y-100424470D01*
X164904384Y-100413935D01*
X164857132Y-100389405D01*
X164781890Y-100326351D01*
X164739905Y-100268564D01*
X164703189Y-100177520D01*
X164694461Y-100125001D01*
X164704996Y-100058486D01*
X164748788Y-99997239D01*
X164787312Y-99969249D01*
X164859094Y-99946527D01*
X164892352Y-99951795D01*
X165534773Y-99985361D02*
X165529505Y-100018619D01*
X165485713Y-100079865D01*
X165447189Y-100107855D01*
X165375407Y-100130578D01*
X165308893Y-100120043D01*
X165261641Y-100095513D01*
X165186399Y-100032459D01*
X165144414Y-99974671D01*
X165107697Y-99883627D01*
X165098969Y-99831108D01*
X165109504Y-99764594D01*
X165153296Y-99703346D01*
X165191821Y-99675356D01*
X165263602Y-99652635D01*
X165296860Y-99657902D01*
D13*
D10*
X167587114Y-87434907D02*
X167595044Y-87382261D01*
X167572971Y-87314329D01*
X167528254Y-87253753D01*
X167468250Y-87223180D01*
X167415605Y-87215252D01*
X167317670Y-87222037D01*
X167249737Y-87244110D01*
X167166518Y-87296185D01*
X167128587Y-87333543D01*
X167098014Y-87393547D01*
X167097443Y-87468837D01*
X167112158Y-87514126D01*
X167156874Y-87574700D01*
X167186877Y-87589987D01*
X167345385Y-87538485D01*
X167315955Y-87447908D01*
X167207806Y-87808500D02*
X167683335Y-87653992D01*
X167296097Y-88080231D01*
X167771625Y-87925722D01*
X167369672Y-88306673D02*
X167845201Y-88152165D01*
X167881988Y-88265385D01*
X167881416Y-88340676D01*
X167850843Y-88400679D01*
X167812912Y-88438038D01*
X167729693Y-88490113D01*
X167661760Y-88512186D01*
X167563826Y-88518971D01*
X167511180Y-88511043D01*
X167451177Y-88480469D01*
X167406460Y-88419894D01*
X167369672Y-88306673D01*
X169370190Y-94463631D02*
X169845718Y-94309123D01*
X169882505Y-94422343D01*
X169881934Y-94497634D01*
X169851360Y-94557638D01*
X169813429Y-94594996D01*
X169730210Y-94647071D01*
X169662277Y-94669144D01*
X169564343Y-94675929D01*
X169511697Y-94668001D01*
X169451694Y-94637428D01*
X169406977Y-94576852D01*
X169370190Y-94463631D01*
X170029657Y-94875228D02*
X170059087Y-94965805D01*
X170051157Y-95018451D01*
X170020584Y-95078454D01*
X169937365Y-95130528D01*
X169778855Y-95182031D01*
X169680921Y-95188817D01*
X169620917Y-95158244D01*
X169583558Y-95120313D01*
X169554128Y-95029736D01*
X169562057Y-94977091D01*
X169592630Y-94917087D01*
X169675849Y-94865012D01*
X169834359Y-94813509D01*
X169932293Y-94806724D01*
X169992297Y-94837297D01*
X170029657Y-94875228D01*
X170162093Y-95282824D02*
X169777141Y-95407902D01*
X169739210Y-95445261D01*
X169723923Y-95475264D01*
X169715994Y-95527909D01*
X169745425Y-95618486D01*
X169782783Y-95656417D01*
X169812785Y-95671703D01*
X169865432Y-95679633D01*
X170250383Y-95554554D01*
X170301886Y-95713064D02*
X170390176Y-95984794D01*
X169870503Y-96003438D02*
X170346031Y-95848929D01*
X169163100Y-92285295D02*
X169171030Y-92232649D01*
X169148957Y-92164717D01*
X169104240Y-92104141D01*
X169044236Y-92073568D01*
X168991591Y-92065640D01*
X168893656Y-92072425D01*
X168825723Y-92094498D01*
X168742504Y-92146573D01*
X168704573Y-92183931D01*
X168674000Y-92243935D01*
X168673429Y-92319225D01*
X168688144Y-92364514D01*
X168732860Y-92425088D01*
X168762863Y-92440375D01*
X168921371Y-92388873D01*
X168891941Y-92298296D01*
X168783792Y-92658888D02*
X169259321Y-92504380D01*
X168872083Y-92930619D01*
X169347611Y-92776110D01*
X168945658Y-93157061D02*
X169421187Y-93002553D01*
X169457974Y-93115773D01*
X169457402Y-93191064D01*
X169426829Y-93251067D01*
X169388898Y-93288426D01*
X169305679Y-93340501D01*
X169237746Y-93362574D01*
X169139812Y-93369359D01*
X169087166Y-93361431D01*
X169027163Y-93330857D01*
X168982446Y-93270282D01*
X168945658Y-93157061D01*
X166321221Y-85079875D02*
X166796750Y-84925366D01*
X166833537Y-85038587D01*
X166832965Y-85113878D01*
X166802392Y-85173881D01*
X166764461Y-85211240D01*
X166681242Y-85263315D01*
X166613309Y-85285387D01*
X166515375Y-85292173D01*
X166462729Y-85284244D01*
X166402726Y-85253671D01*
X166358009Y-85193095D01*
X166321221Y-85079875D01*
X166475730Y-85555403D02*
X166951258Y-85400895D01*
X166549305Y-85781845D02*
X167024834Y-85627336D01*
X166637596Y-86053575D01*
X167113124Y-85899067D01*
X168324913Y-89628567D02*
X167900887Y-89941585D01*
X168427918Y-89945586D01*
X168137472Y-90515619D02*
X168107469Y-90500332D01*
X168062753Y-90439757D01*
X168048038Y-90394469D01*
X168048609Y-90319178D01*
X168079182Y-90259175D01*
X168117113Y-90221816D01*
X168200332Y-90169741D01*
X168268265Y-90147669D01*
X168366200Y-90140883D01*
X168418846Y-90148812D01*
X168478849Y-90179385D01*
X168523566Y-90239960D01*
X168538281Y-90285249D01*
X168537709Y-90360538D01*
X168522422Y-90390541D01*
X168291980Y-90991147D02*
X168261978Y-90975860D01*
X168217262Y-90915285D01*
X168202547Y-90869997D01*
X168203118Y-90794707D01*
X168233691Y-90734703D01*
X168271622Y-90697344D01*
X168354841Y-90645270D01*
X168422774Y-90623197D01*
X168520708Y-90616411D01*
X168573354Y-90624340D01*
X168633357Y-90654913D01*
X168678075Y-90715489D01*
X168692790Y-90760777D01*
X168692218Y-90836067D01*
X168676931Y-90866069D01*
D13*
D10*
X150284333Y-92814029D02*
X150246973Y-92851959D01*
X150224901Y-92919891D01*
X150225473Y-92995182D01*
X150256046Y-93055185D01*
X150293977Y-93092544D01*
X150377196Y-93144619D01*
X150445129Y-93166692D01*
X150543063Y-93173477D01*
X150595709Y-93165549D01*
X150655712Y-93134975D01*
X150700429Y-93074400D01*
X150715144Y-93029111D01*
X150714573Y-92953822D01*
X150699286Y-92923820D01*
X150540777Y-92872317D01*
X150511347Y-92962894D01*
X150810792Y-92734737D02*
X150335264Y-92580228D01*
X150899083Y-92463006D01*
X150423554Y-92308498D01*
X150972658Y-92236564D02*
X150497130Y-92082055D01*
X150533918Y-91968835D01*
X150578635Y-91908259D01*
X150638639Y-91877686D01*
X150691284Y-91869758D01*
X150789219Y-91876543D01*
X150857152Y-91898616D01*
X150940371Y-91950691D01*
X150978302Y-91988049D01*
X151008875Y-92048053D01*
X151009446Y-92123343D01*
X150972658Y-92236564D01*
X152973176Y-86079606D02*
X152497647Y-85925097D01*
X152534435Y-85811877D01*
X152579152Y-85751301D01*
X152639156Y-85720728D01*
X152691801Y-85712800D01*
X152789736Y-85719585D01*
X152857669Y-85741658D01*
X152940888Y-85793733D01*
X152978819Y-85831091D01*
X153009392Y-85891095D01*
X153009963Y-85966385D01*
X152973176Y-86079606D01*
X152681586Y-85358992D02*
X152711016Y-85268415D01*
X152748376Y-85230485D01*
X152808379Y-85199912D01*
X152906313Y-85206698D01*
X153064823Y-85258201D01*
X153148042Y-85310275D01*
X153178616Y-85370278D01*
X153186544Y-85422924D01*
X153157114Y-85513501D01*
X153119755Y-85551432D01*
X153059752Y-85582005D01*
X152961818Y-85575219D01*
X152803308Y-85523716D01*
X152720089Y-85471642D01*
X152689516Y-85411638D01*
X152681586Y-85358992D01*
X152814022Y-84951396D02*
X153198974Y-85076474D01*
X153251619Y-85068546D01*
X153281622Y-85053259D01*
X153318980Y-85015328D01*
X153348411Y-84924751D01*
X153340482Y-84872105D01*
X153325195Y-84842104D01*
X153287264Y-84804744D01*
X152902312Y-84679666D01*
X152953815Y-84521156D02*
X153042106Y-84249426D01*
X153473489Y-84539800D02*
X152997961Y-84385291D01*
X151860319Y-87963641D02*
X151822959Y-88001571D01*
X151800887Y-88069503D01*
X151801459Y-88144794D01*
X151832032Y-88204797D01*
X151869963Y-88242156D01*
X151953182Y-88294231D01*
X152021115Y-88316304D01*
X152119049Y-88323089D01*
X152171695Y-88315161D01*
X152231698Y-88284587D01*
X152276415Y-88224012D01*
X152291130Y-88178723D01*
X152290559Y-88103434D01*
X152275272Y-88073432D01*
X152116763Y-88021929D01*
X152087333Y-88112506D01*
X152386778Y-87884349D02*
X151911250Y-87729840D01*
X152475069Y-87612618D01*
X151999540Y-87458110D01*
X152548644Y-87386176D02*
X152073116Y-87231667D01*
X152109904Y-87118447D01*
X152154621Y-87057871D01*
X152214625Y-87027298D01*
X152267270Y-87019370D01*
X152365205Y-87026155D01*
X152433138Y-87048228D01*
X152516357Y-87100303D01*
X152554288Y-87137661D01*
X152584861Y-87197665D01*
X152585432Y-87272955D01*
X152548644Y-87386176D01*
X149924207Y-95463362D02*
X149448679Y-95308854D01*
X149485467Y-95195633D01*
X149530184Y-95135058D01*
X149590188Y-95104485D01*
X149642833Y-95096556D01*
X149740768Y-95103342D01*
X149808701Y-95125414D01*
X149891920Y-95177489D01*
X149929851Y-95214848D01*
X149960424Y-95274851D01*
X149960995Y-95350142D01*
X149924207Y-95463362D01*
X150078716Y-94987834D02*
X149603188Y-94833325D01*
X150152291Y-94761392D02*
X149676763Y-94606884D01*
X150240582Y-94489662D01*
X149765054Y-94335153D01*
X150976842Y-90605653D02*
X151503873Y-90601652D01*
X151079848Y-90288635D01*
X151649881Y-89998188D02*
X151665168Y-90028190D01*
X151665739Y-90103480D01*
X151651024Y-90148768D01*
X151606308Y-90209344D01*
X151546304Y-90239917D01*
X151493658Y-90247846D01*
X151395724Y-90241060D01*
X151327791Y-90218988D01*
X151244572Y-90166913D01*
X151206641Y-90129554D01*
X151176068Y-90069550D01*
X151175496Y-89994260D01*
X151190211Y-89948971D01*
X151234928Y-89888397D01*
X151264930Y-89873110D01*
X151804389Y-89522660D02*
X151819676Y-89552662D01*
X151820248Y-89627952D01*
X151805533Y-89673240D01*
X151760816Y-89733816D01*
X151700813Y-89764389D01*
X151648167Y-89772318D01*
X151550233Y-89765532D01*
X151482299Y-89743459D01*
X151399080Y-89691384D01*
X151361149Y-89654026D01*
X151330576Y-89594022D01*
X151330004Y-89518732D01*
X151344719Y-89473443D01*
X151389437Y-89412869D01*
X151419439Y-89397582D01*
D13*
M02*
