G04 #@! TF.FileFunction,Legend,Bot*
%FSLAX46Y46*%
G04 Gerber Fmt 4.6, Leading zero omitted, Abs format (unit mm)*
G04 Created by KiCad (PCBNEW 4.0.7) date 05/29/18 15:24:09*
%MOMM*%
%LPD*%
G01*
G04 APERTURE LIST*
%ADD10C,0.100000*%
%ADD11C,0.150000*%
G04 APERTURE END LIST*
D10*
D11*
X167923812Y-92411905D02*
X167923812Y-91611905D01*
X167733336Y-91611905D01*
X167619050Y-91650000D01*
X167542859Y-91726190D01*
X167504764Y-91802381D01*
X167466669Y-91954762D01*
X167466669Y-92069048D01*
X167504764Y-92221429D01*
X167542859Y-92297619D01*
X167619050Y-92373810D01*
X167733336Y-92411905D01*
X167923812Y-92411905D01*
X167009526Y-92411905D02*
X167085717Y-92373810D01*
X167123812Y-92335714D01*
X167161907Y-92259524D01*
X167161907Y-92030952D01*
X167123812Y-91954762D01*
X167085717Y-91916667D01*
X167009526Y-91878571D01*
X166895240Y-91878571D01*
X166819050Y-91916667D01*
X166780955Y-91954762D01*
X166742859Y-92030952D01*
X166742859Y-92259524D01*
X166780955Y-92335714D01*
X166819050Y-92373810D01*
X166895240Y-92411905D01*
X167009526Y-92411905D01*
X166057145Y-92411905D02*
X166057145Y-91611905D01*
X166057145Y-92373810D02*
X166133335Y-92411905D01*
X166285716Y-92411905D01*
X166361907Y-92373810D01*
X166400002Y-92335714D01*
X166438097Y-92259524D01*
X166438097Y-92030952D01*
X166400002Y-91954762D01*
X166361907Y-91916667D01*
X166285716Y-91878571D01*
X166133335Y-91878571D01*
X166057145Y-91916667D01*
X165371430Y-92373810D02*
X165447620Y-92411905D01*
X165600001Y-92411905D01*
X165676192Y-92373810D01*
X165714287Y-92297619D01*
X165714287Y-91992857D01*
X165676192Y-91916667D01*
X165600001Y-91878571D01*
X165447620Y-91878571D01*
X165371430Y-91916667D01*
X165333335Y-91992857D01*
X165333335Y-92069048D01*
X165714287Y-92145238D01*
X164647621Y-92373810D02*
X164723811Y-92411905D01*
X164876192Y-92411905D01*
X164952383Y-92373810D01*
X164990478Y-92335714D01*
X165028573Y-92259524D01*
X165028573Y-92030952D01*
X164990478Y-91954762D01*
X164952383Y-91916667D01*
X164876192Y-91878571D01*
X164723811Y-91878571D01*
X164647621Y-91916667D01*
X163961907Y-92411905D02*
X163961907Y-91992857D01*
X164000002Y-91916667D01*
X164076192Y-91878571D01*
X164228573Y-91878571D01*
X164304764Y-91916667D01*
X163961907Y-92373810D02*
X164038097Y-92411905D01*
X164228573Y-92411905D01*
X164304764Y-92373810D01*
X164342859Y-92297619D01*
X164342859Y-92221429D01*
X164304764Y-92145238D01*
X164228573Y-92107143D01*
X164038097Y-92107143D01*
X163961907Y-92069048D01*
X163580954Y-92411905D02*
X163580954Y-91611905D01*
X163238097Y-92411905D02*
X163238097Y-91992857D01*
X163276192Y-91916667D01*
X163352382Y-91878571D01*
X163466668Y-91878571D01*
X163542859Y-91916667D01*
X163580954Y-91954762D01*
X162552382Y-92373810D02*
X162628572Y-92411905D01*
X162780953Y-92411905D01*
X162857144Y-92373810D01*
X162895239Y-92297619D01*
X162895239Y-91992857D01*
X162857144Y-91916667D01*
X162780953Y-91878571D01*
X162628572Y-91878571D01*
X162552382Y-91916667D01*
X162514287Y-91992857D01*
X162514287Y-92069048D01*
X162895239Y-92145238D01*
X161828573Y-92411905D02*
X161828573Y-91611905D01*
X161828573Y-92373810D02*
X161904763Y-92411905D01*
X162057144Y-92411905D01*
X162133335Y-92373810D01*
X162171430Y-92335714D01*
X162209525Y-92259524D01*
X162209525Y-92030952D01*
X162171430Y-91954762D01*
X162133335Y-91916667D01*
X162057144Y-91878571D01*
X161904763Y-91878571D01*
X161828573Y-91916667D01*
X161447620Y-92411905D02*
X161447620Y-91878571D01*
X161447620Y-92030952D02*
X161409525Y-91954762D01*
X161371429Y-91916667D01*
X161295239Y-91878571D01*
X161219048Y-91878571D01*
X160609525Y-92411905D02*
X160609525Y-91992857D01*
X160647620Y-91916667D01*
X160723810Y-91878571D01*
X160876191Y-91878571D01*
X160952382Y-91916667D01*
X160609525Y-92373810D02*
X160685715Y-92411905D01*
X160876191Y-92411905D01*
X160952382Y-92373810D01*
X160990477Y-92297619D01*
X160990477Y-92221429D01*
X160952382Y-92145238D01*
X160876191Y-92107143D01*
X160685715Y-92107143D01*
X160609525Y-92069048D01*
X160114286Y-92411905D02*
X160190477Y-92373810D01*
X160228572Y-92297619D01*
X160228572Y-91611905D01*
X158819047Y-92411905D02*
X159200000Y-92411905D01*
X159200000Y-91611905D01*
X158552381Y-92411905D02*
X158552381Y-91878571D01*
X158552381Y-91611905D02*
X158590476Y-91650000D01*
X158552381Y-91688095D01*
X158514286Y-91650000D01*
X158552381Y-91611905D01*
X158552381Y-91688095D01*
X157828572Y-91878571D02*
X157828572Y-92526190D01*
X157866667Y-92602381D01*
X157904762Y-92640476D01*
X157980953Y-92678571D01*
X158095238Y-92678571D01*
X158171429Y-92640476D01*
X157828572Y-92373810D02*
X157904762Y-92411905D01*
X158057143Y-92411905D01*
X158133334Y-92373810D01*
X158171429Y-92335714D01*
X158209524Y-92259524D01*
X158209524Y-92030952D01*
X158171429Y-91954762D01*
X158133334Y-91916667D01*
X158057143Y-91878571D01*
X157904762Y-91878571D01*
X157828572Y-91916667D01*
X157447619Y-92411905D02*
X157447619Y-91611905D01*
X157104762Y-92411905D02*
X157104762Y-91992857D01*
X157142857Y-91916667D01*
X157219047Y-91878571D01*
X157333333Y-91878571D01*
X157409524Y-91916667D01*
X157447619Y-91954762D01*
X156838095Y-91878571D02*
X156533333Y-91878571D01*
X156723809Y-91611905D02*
X156723809Y-92297619D01*
X156685714Y-92373810D01*
X156609523Y-92411905D01*
X156533333Y-92411905D01*
X155657142Y-91992857D02*
X155390475Y-91992857D01*
X155276189Y-92411905D02*
X155657142Y-92411905D01*
X155657142Y-91611905D01*
X155276189Y-91611905D01*
X154933332Y-91878571D02*
X154933332Y-92411905D01*
X154933332Y-91954762D02*
X154895237Y-91916667D01*
X154819046Y-91878571D01*
X154704760Y-91878571D01*
X154628570Y-91916667D01*
X154590475Y-91992857D01*
X154590475Y-92411905D01*
X153866665Y-91878571D02*
X153866665Y-92526190D01*
X153904760Y-92602381D01*
X153942855Y-92640476D01*
X154019046Y-92678571D01*
X154133331Y-92678571D01*
X154209522Y-92640476D01*
X153866665Y-92373810D02*
X153942855Y-92411905D01*
X154095236Y-92411905D01*
X154171427Y-92373810D01*
X154209522Y-92335714D01*
X154247617Y-92259524D01*
X154247617Y-92030952D01*
X154209522Y-91954762D01*
X154171427Y-91916667D01*
X154095236Y-91878571D01*
X153942855Y-91878571D01*
X153866665Y-91916667D01*
X153485712Y-92411905D02*
X153485712Y-91878571D01*
X153485712Y-91611905D02*
X153523807Y-91650000D01*
X153485712Y-91688095D01*
X153447617Y-91650000D01*
X153485712Y-91611905D01*
X153485712Y-91688095D01*
X153104760Y-91878571D02*
X153104760Y-92411905D01*
X153104760Y-91954762D02*
X153066665Y-91916667D01*
X152990474Y-91878571D01*
X152876188Y-91878571D01*
X152799998Y-91916667D01*
X152761903Y-91992857D01*
X152761903Y-92411905D01*
X152076188Y-92373810D02*
X152152378Y-92411905D01*
X152304759Y-92411905D01*
X152380950Y-92373810D01*
X152419045Y-92297619D01*
X152419045Y-91992857D01*
X152380950Y-91916667D01*
X152304759Y-91878571D01*
X152152378Y-91878571D01*
X152076188Y-91916667D01*
X152038093Y-91992857D01*
X152038093Y-92069048D01*
X152419045Y-92145238D01*
X161657143Y-92961905D02*
X161161905Y-92961905D01*
X161428572Y-93266667D01*
X161314286Y-93266667D01*
X161238096Y-93304762D01*
X161200000Y-93342857D01*
X161161905Y-93419048D01*
X161161905Y-93609524D01*
X161200000Y-93685714D01*
X161238096Y-93723810D01*
X161314286Y-93761905D01*
X161542858Y-93761905D01*
X161619048Y-93723810D01*
X161657143Y-93685714D01*
X159828571Y-93761905D02*
X160209524Y-93761905D01*
X160209524Y-92961905D01*
X159561905Y-93342857D02*
X159295238Y-93342857D01*
X159180952Y-93761905D02*
X159561905Y-93761905D01*
X159561905Y-92961905D01*
X159180952Y-92961905D01*
X158838095Y-93761905D02*
X158838095Y-92961905D01*
X158647619Y-92961905D01*
X158533333Y-93000000D01*
X158457142Y-93076190D01*
X158419047Y-93152381D01*
X158380952Y-93304762D01*
X158380952Y-93419048D01*
X158419047Y-93571429D01*
X158457142Y-93647619D01*
X158533333Y-93723810D01*
X158647619Y-93761905D01*
X158838095Y-93761905D01*
X161219048Y-94311905D02*
X160952381Y-95111905D01*
X160685714Y-94311905D01*
X160000000Y-95111905D02*
X160457143Y-95111905D01*
X160228572Y-95111905D02*
X160228572Y-94311905D01*
X160304762Y-94426190D01*
X160380953Y-94502381D01*
X160457143Y-94540476D01*
X159657143Y-95035714D02*
X159619048Y-95073810D01*
X159657143Y-95111905D01*
X159695238Y-95073810D01*
X159657143Y-95035714D01*
X159657143Y-95111905D01*
X159352381Y-94311905D02*
X158857143Y-94311905D01*
X159123810Y-94616667D01*
X159009524Y-94616667D01*
X158933334Y-94654762D01*
X158895238Y-94692857D01*
X158857143Y-94769048D01*
X158857143Y-94959524D01*
X158895238Y-95035714D01*
X158933334Y-95073810D01*
X159009524Y-95111905D01*
X159238096Y-95111905D01*
X159314286Y-95073810D01*
X159352381Y-95035714D01*
X164871430Y-88492857D02*
X164604763Y-88492857D01*
X164490477Y-88911905D02*
X164871430Y-88911905D01*
X164871430Y-88111905D01*
X164490477Y-88111905D01*
X163804763Y-88911905D02*
X163804763Y-88492857D01*
X163842858Y-88416667D01*
X163919048Y-88378571D01*
X164071429Y-88378571D01*
X164147620Y-88416667D01*
X163804763Y-88873810D02*
X163880953Y-88911905D01*
X164071429Y-88911905D01*
X164147620Y-88873810D01*
X164185715Y-88797619D01*
X164185715Y-88721429D01*
X164147620Y-88645238D01*
X164071429Y-88607143D01*
X163880953Y-88607143D01*
X163804763Y-88569048D01*
X163080953Y-88378571D02*
X163080953Y-89026190D01*
X163119048Y-89102381D01*
X163157143Y-89140476D01*
X163233334Y-89178571D01*
X163347619Y-89178571D01*
X163423810Y-89140476D01*
X163080953Y-88873810D02*
X163157143Y-88911905D01*
X163309524Y-88911905D01*
X163385715Y-88873810D01*
X163423810Y-88835714D01*
X163461905Y-88759524D01*
X163461905Y-88530952D01*
X163423810Y-88454762D01*
X163385715Y-88416667D01*
X163309524Y-88378571D01*
X163157143Y-88378571D01*
X163080953Y-88416667D01*
X162585714Y-88911905D02*
X162661905Y-88873810D01*
X162700000Y-88797619D01*
X162700000Y-88111905D01*
X161976190Y-88873810D02*
X162052380Y-88911905D01*
X162204761Y-88911905D01*
X162280952Y-88873810D01*
X162319047Y-88797619D01*
X162319047Y-88492857D01*
X162280952Y-88416667D01*
X162204761Y-88378571D01*
X162052380Y-88378571D01*
X161976190Y-88416667D01*
X161938095Y-88492857D01*
X161938095Y-88569048D01*
X162319047Y-88645238D01*
X161595238Y-88911905D02*
X161595238Y-88111905D01*
X161404762Y-88111905D01*
X161290476Y-88150000D01*
X161214285Y-88226190D01*
X161176190Y-88302381D01*
X161138095Y-88454762D01*
X161138095Y-88569048D01*
X161176190Y-88721429D01*
X161214285Y-88797619D01*
X161290476Y-88873810D01*
X161404762Y-88911905D01*
X161595238Y-88911905D01*
X160490476Y-88873810D02*
X160566666Y-88911905D01*
X160719047Y-88911905D01*
X160795238Y-88873810D01*
X160833333Y-88797619D01*
X160833333Y-88492857D01*
X160795238Y-88416667D01*
X160719047Y-88378571D01*
X160566666Y-88378571D01*
X160490476Y-88416667D01*
X160452381Y-88492857D01*
X160452381Y-88569048D01*
X160833333Y-88645238D01*
X159766667Y-88873810D02*
X159842857Y-88911905D01*
X159995238Y-88911905D01*
X160071429Y-88873810D01*
X160109524Y-88835714D01*
X160147619Y-88759524D01*
X160147619Y-88530952D01*
X160109524Y-88454762D01*
X160071429Y-88416667D01*
X159995238Y-88378571D01*
X159842857Y-88378571D01*
X159766667Y-88416667D01*
X159309524Y-88911905D02*
X159385715Y-88873810D01*
X159423810Y-88835714D01*
X159461905Y-88759524D01*
X159461905Y-88530952D01*
X159423810Y-88454762D01*
X159385715Y-88416667D01*
X159309524Y-88378571D01*
X159195238Y-88378571D01*
X159119048Y-88416667D01*
X159080953Y-88454762D01*
X159042857Y-88530952D01*
X159042857Y-88759524D01*
X159080953Y-88835714D01*
X159119048Y-88873810D01*
X159195238Y-88911905D01*
X159309524Y-88911905D01*
X158700000Y-88911905D02*
X158700000Y-88378571D01*
X158700000Y-88530952D02*
X158661905Y-88454762D01*
X158623809Y-88416667D01*
X158547619Y-88378571D01*
X158471428Y-88378571D01*
X157861905Y-88911905D02*
X157861905Y-88492857D01*
X157900000Y-88416667D01*
X157976190Y-88378571D01*
X158128571Y-88378571D01*
X158204762Y-88416667D01*
X157861905Y-88873810D02*
X157938095Y-88911905D01*
X158128571Y-88911905D01*
X158204762Y-88873810D01*
X158242857Y-88797619D01*
X158242857Y-88721429D01*
X158204762Y-88645238D01*
X158128571Y-88607143D01*
X157938095Y-88607143D01*
X157861905Y-88569048D01*
X157595238Y-88378571D02*
X157290476Y-88378571D01*
X157480952Y-88111905D02*
X157480952Y-88797619D01*
X157442857Y-88873810D01*
X157366666Y-88911905D01*
X157290476Y-88911905D01*
X157023809Y-88911905D02*
X157023809Y-88378571D01*
X157023809Y-88111905D02*
X157061904Y-88150000D01*
X157023809Y-88188095D01*
X156985714Y-88150000D01*
X157023809Y-88111905D01*
X157023809Y-88188095D01*
X156528571Y-88911905D02*
X156604762Y-88873810D01*
X156642857Y-88835714D01*
X156680952Y-88759524D01*
X156680952Y-88530952D01*
X156642857Y-88454762D01*
X156604762Y-88416667D01*
X156528571Y-88378571D01*
X156414285Y-88378571D01*
X156338095Y-88416667D01*
X156300000Y-88454762D01*
X156261904Y-88530952D01*
X156261904Y-88759524D01*
X156300000Y-88835714D01*
X156338095Y-88873810D01*
X156414285Y-88911905D01*
X156528571Y-88911905D01*
X155919047Y-88378571D02*
X155919047Y-88911905D01*
X155919047Y-88454762D02*
X155880952Y-88416667D01*
X155804761Y-88378571D01*
X155690475Y-88378571D01*
X155614285Y-88416667D01*
X155576190Y-88492857D01*
X155576190Y-88911905D01*
X155233332Y-88873810D02*
X155157142Y-88911905D01*
X155004761Y-88911905D01*
X154928570Y-88873810D01*
X154890475Y-88797619D01*
X154890475Y-88759524D01*
X154928570Y-88683333D01*
X155004761Y-88645238D01*
X155119046Y-88645238D01*
X155195237Y-88607143D01*
X155233332Y-88530952D01*
X155233332Y-88492857D01*
X155195237Y-88416667D01*
X155119046Y-88378571D01*
X155004761Y-88378571D01*
X154928570Y-88416667D01*
M02*
