G04 #@! TF.FileFunction,Soldermask,Bot*
%FSLAX46Y46*%
G04 Gerber Fmt 4.6, Leading zero omitted, Abs format (unit mm)*
G04 Created by KiCad (PCBNEW 4.0.7) date 05/29/18 15:24:09*
%MOMM*%
%LPD*%
G01*
G04 APERTURE LIST*
%ADD10C,0.100000*%
%ADD11C,2.100000*%
%ADD12R,2.100000X2.100000*%
%ADD13O,2.100000X2.100000*%
G04 APERTURE END LIST*
D10*
G36*
X157667707Y-102633358D02*
X159366642Y-103867707D01*
X158132293Y-105566642D01*
X156433358Y-104332293D01*
X157667707Y-102633358D01*
X157667707Y-102633358D01*
G37*
D11*
X155845097Y-102607025D02*
X155845097Y-102607025D01*
X153790194Y-101114051D02*
X153790194Y-101114051D01*
X151735291Y-99621076D02*
X151735291Y-99621076D01*
X149680387Y-98128102D02*
X149680387Y-98128102D01*
D12*
X154750000Y-82750000D03*
D13*
X157290000Y-82750000D03*
X159830000Y-82750000D03*
X162370000Y-82750000D03*
X164910000Y-82750000D03*
D10*
G36*
X168433358Y-97967707D02*
X170132293Y-96733358D01*
X171366642Y-98432293D01*
X169667707Y-99666642D01*
X168433358Y-97967707D01*
X168433358Y-97967707D01*
G37*
D11*
X167845097Y-99692975D02*
X167845097Y-99692975D01*
X165790194Y-101185949D02*
X165790194Y-101185949D01*
X163735291Y-102678924D02*
X163735291Y-102678924D01*
X161680387Y-104171898D02*
X161680387Y-104171898D01*
D10*
G36*
X167225859Y-86323077D02*
X166576923Y-84325859D01*
X168574141Y-83676923D01*
X169223077Y-85674141D01*
X167225859Y-86323077D01*
X167225859Y-86323077D01*
G37*
D11*
X168684903Y-87415684D02*
X168684903Y-87415684D01*
X169469806Y-89831367D02*
X169469806Y-89831367D01*
X170254709Y-92247051D02*
X170254709Y-92247051D01*
X171039613Y-94662734D02*
X171039613Y-94662734D01*
D10*
G36*
X149923077Y-93925859D02*
X149274141Y-95923077D01*
X147276923Y-95274141D01*
X147925859Y-93276923D01*
X149923077Y-93925859D01*
X149923077Y-93925859D01*
G37*
D11*
X149384903Y-92184316D02*
X149384903Y-92184316D01*
X150169806Y-89768633D02*
X150169806Y-89768633D01*
X150954709Y-87352949D02*
X150954709Y-87352949D01*
X151739613Y-84937266D02*
X151739613Y-84937266D01*
M02*
